<?xml version="1.0" encoding="UTF-8"?>
<svg version="1.1" xmlns="http://www.w3.org/2000/svg" width="750" height="940">
    <!-- Body Fur -->
    <path d="M0 0 C3.51191131 -0.512361 6.64484454 -1.07662849 9.875 -2.5625 C16.17861225 -5.46216164 25.22962313 -4.89746812 31.8125 -2.8125 C45.95857037 2.8039361 53.78225941 10.93721457 60.75 24.375 C66.17662485 40.11221206 65.75489181 54.04170981 62 70 C68.34811165 75.98639589 75.13774192 81.24505027 82.14624023 86.43041992 C82.85852783 86.9638501 83.57081543 87.49728027 84.3046875 88.046875 C84.94390137 88.51963867 85.58311523 88.99240234 86.24169922 89.47949219 C88.16362041 91.14149236 89.54779462 92.92254728 91 95 C90.835 95.763125 90.67 96.52625 90.5 97.3125 C89.69870907 101.3142328 89.69870907 101.3142328 91.27734375 104.8984375 C92.09912109 106.12433594 92.09912109 106.12433594 92.9375 107.375 C93.75541016 108.59316406 93.75541016 108.59316406 94.58984375 109.8359375 C97.51135821 114.31936966 97 114.51072188 97 121 C96.67 121.33 96.34 121.66 96 122 C93.69 121.67 91.38 121.34 89 121 C89.52400391 122.03060547 89.52400391 122.03060547 90.05859375 123.08203125 C90.51363281 123.98308594 90.96867188 124.88414062 91.4375 125.8125 C91.88996094 126.70582031 92.34242188 127.59914062 92.80859375 128.51953125 C94.69993732 132.45724656 95.1133908 135.36178189 95.0625 139.6875 C95.05347656 140.68136719 95.04445313 141.67523438 95.03515625 142.69921875 C95 145 95 145 93 148 C91.02 147.67 89.04 147.34 87 147 C86.67 151.62 86.34 156.24 86 161 C77.15185821 177.93436025 66.09953889 193.41396063 54.5 208.5625 C33.06381241 236.76031843 29.96888767 268.62455399 34.5871582 302.97241211 C42.94520756 360.15044984 67.86584945 407.42736426 98.08203125 455.953125 C109.46714511 474.28742033 119.40331683 492.69328329 119.375 514.8125 C119.37701416 515.81514893 119.37902832 516.81779785 119.38110352 517.85083008 C119.29196463 524.53624679 118.46217823 530.68983607 116.9375 537.1875 C114.76762742 546.5010201 115.09063115 554.80348014 115.82421875 564.27539062 C118.14895441 600.30879328 118.14895441 600.30879328 107.6328125 612.59765625 C103.73278147 616.55277246 103.62991851 616.05286878 97 617 C97.15847412 617.49854492 97.31694824 617.99708984 97.48022461 618.51074219 C98.1955039 621.93628827 98.23584074 625.34247117 98.31640625 628.828125 C98.33718735 629.57713074 98.35796844 630.32613647 98.37937927 631.09783936 C98.44457088 633.48180288 98.50361783 635.86587312 98.5625 638.25 C98.60571416 639.86980254 98.64932937 641.48959443 98.69335938 643.109375 C98.80022096 647.07280832 98.90157333 651.0363486 99 655 C99.52843506 656.08192627 100.05687012 657.16385254 100.60131836 658.27856445 C102.60976766 662.39145988 104.61672555 666.50508171 106.62329102 670.61889648 C107.48292648 672.38080585 108.34293728 674.14253215 109.20336914 675.90405273 C111.72569523 681.06825342 114.24085538 686.23583944 116.74526978 691.40875244 C117.5839537 693.14078824 118.42394714 694.87219053 119.26522827 696.60296631 C128.05212361 714.71001053 128.05212361 714.71001053 130.4375 723 C130.79158936 724.18057983 130.79158936 724.18057983 131.15283203 725.38500977 C137.52447355 747.10814317 134.59837892 764.38875295 124.3125 784.4375 C118.87055461 794.12137204 111.5730687 802.60207464 104.07421875 810.7421875 C102.20979587 812.77163463 100.41225446 814.84034156 98.625 816.9375 C93.18407846 823.19201728 87.15505912 828.92048455 81.2265625 834.70703125 C78.9786028 836.79091442 78.9786028 836.79091442 78 839 C79.00353516 839.185625 79.00353516 839.185625 80.02734375 839.375 C94.14791863 842.40760669 109.71212011 848.56818016 118 861 C118 863.31 118 865.62 118 868 C110.81359386 875.18640614 102.98763565 875.43288951 93.2355957 875.46801758 C91.76121683 875.46006396 90.28684863 875.44984717 88.8125 875.4375 C88.06044281 875.43479095 87.30838562 875.43208191 86.53353882 875.42929077 C66.22362081 875.31845792 42.91106745 873.63805781 27 860 C24.75896849 855.51793698 26 850.01109879 26 845 C28.31 839.39 30.62 833.78 33 828 C32.70444848 819.06125639 32.70444848 819.06125639 28 813 C26.25156882 811.87256334 24.5011906 810.7481458 22.75 809.625 C21.77546875 808.99851562 20.8009375 808.37203125 19.796875 807.7265625 C14.49669387 804.45466298 12.06896052 803.90842006 6 805 C4.15134867 805.46345004 2.30621607 805.94105317 0.46386719 806.42895508 C-5.54690227 807.9485233 -11.53569408 808.96942784 -17.671875 809.82421875 C-19.24452118 810.05090996 -19.24452118 810.05090996 -20.84893799 810.28218079 C-24.14848882 810.75645232 -27.44918319 811.22213023 -30.75 811.6875 C-33.00789433 812.01049622 -35.26570768 812.33405903 -37.5234375 812.65820312 C-43.01470762 813.44534282 -48.50693933 814.22545977 -54 815 C-54.61195976 816.03386841 -54.61195976 816.03386841 -55.23628235 817.08862305 C-55.77359482 817.99136963 -56.31090729 818.89411621 -56.86450195 819.82421875 C-57.39622513 820.71971436 -57.9279483 821.61520996 -58.4757843 822.5378418 C-61.39219682 827.24890009 -65.1320824 831.0642242 -69 835 C-69.77730469 835.80179688 -70.55460938 836.60359375 -71.35546875 837.4296875 C-83.5308257 849.24639052 -98.97668177 857.3648308 -114 865 C-113.29875 865.35191406 -112.5975 865.70382812 -111.875 866.06640625 C-102.07077207 871.16833464 -95.43895669 876.3118584 -90 886 C-90 896 -90 896 -95 902 C-108.34615776 908.26452303 -125.10810908 907.461106 -139 903 C-152.2850825 898.03403981 -168.36370578 890.27258844 -175 877 C-175 866 -175 866 -172.84765625 862.16796875 C-171.91913635 860.50788771 -170.9907583 858.84772733 -170.0625 857.1875 C-169.35963867 855.93743164 -169.35963867 855.93743164 -168.64257812 854.66210938 C-168.19462891 853.85966797 -167.74667969 853.05722656 -167.28515625 852.23046875 C-166.87144775 851.49207764 -166.45773926 850.75368652 -166.03149414 849.99291992 C-164.03597894 846.13744286 -163.89149466 843.09099633 -163.9375 838.8125 C-163.95103516 837.18248047 -163.95103516 837.18248047 -163.96484375 835.51953125 C-164.15180504 822.12063902 -178.65524201 804.51661715 -185.30859375 793.015625 C-186.97041238 790.05275205 -188.50661037 787.05071643 -190 784 C-192.4169017 784.70753858 -194.83354265 785.41594624 -197.25 786.125 C-198.39867554 786.46168701 -198.39867554 786.46168701 -199.57055664 786.80517578 C-203.60896322 787.99186296 -207.64274277 789.19116788 -211.66796875 790.421875 C-236.52379993 798.01456675 -261.49838624 804.0652045 -287 809 C-287.68942688 809.13354889 -288.37885376 809.26709778 -289.08917236 809.4046936 C-359.48351167 822.97982441 -431.26553803 814.61288622 -491.55541992 773.90600586 C-506.62044699 763.42376125 -521.26271904 751.14161384 -533 737 C-533.77085937 736.14019531 -534.54171875 735.28039062 -535.3359375 734.39453125 C-548.23785672 719.88955825 -559.17225104 703.27636764 -568 686 C-568.40025391 685.21866699 -568.80050781 684.43733398 -569.21289062 683.63232422 C-578.37342081 665.53992531 -585.73332098 646.85566724 -590 627 C-590.41185547 625.12441406 -590.41185547 625.12441406 -590.83203125 623.2109375 C-591.61550837 619.48266709 -592.32519393 615.74936627 -593 612 C-593.20753906 610.90300781 -593.41507813 609.80601562 -593.62890625 608.67578125 C-597.38673413 585.62952218 -596.46101518 561.50230723 -587 540 C-584.525 537.525 -584.525 537.525 -582 535 C-577 535 -577 535 -574.75 537 C-569.08201333 542.71274179 -567.0902319 550.42378969 -565.0625 558 C-564.53760309 559.88443382 -564.01155277 561.76854673 -563.484375 563.65234375 C-563.22978516 564.56999512 -562.97519531 565.48764648 -562.71289062 566.43310547 C-546.19289204 625.91641545 -511.54313944 684.97045415 -456.85205078 716.70141602 C-453.59952639 718.5293042 -450.30954274 720.27792834 -447 722 C-446.32694824 722.35433105 -445.65389648 722.70866211 -444.96044922 723.07373047 C-425.05505167 733.50576444 -404.6085674 739.75949849 -382.34326172 742.69140625 C-380.83319575 742.89027303 -379.32424962 743.09793922 -377.81689453 743.31640625 C-343.39826811 748.24114519 -307.22908687 745.44370277 -273.53466797 737.57910156 C-271.35247607 737.08053104 -269.17069976 736.63223385 -266.97265625 736.2109375 C-243.64749476 731.28203465 -217.15884482 719.47967099 -199 704 C-198.34 704 -197.68 704 -197 704 C-196.94175049 703.09447388 -196.94175049 703.09447388 -196.88232422 702.1706543 C-196.36817347 695.7412921 -195.06976503 689.94952318 -193.125 683.8125 C-192.82255371 682.83982178 -192.52010742 681.86714355 -192.20849609 680.86499023 C-187.17472166 664.94291585 -181.5926873 649.11632886 -175.50390625 633.56640625 C-170.02803331 619.57339234 -166.05735599 605.71036123 -163 591 C-162.78313538 589.96280823 -162.78313538 589.96280823 -162.56188965 588.90466309 C-156.98292386 562.64409877 -156.98292386 562.64409877 -154 536 C-153.9071875 534.91074219 -153.814375 533.82148437 -153.71875 532.69921875 C-153.34578258 525.51027164 -155.17606457 519.72147933 -157.80859375 513.12890625 C-160.79388651 505.2888423 -160.37032027 497.02437482 -160.4375 488.75 C-160.44467041 487.95333923 -160.45184082 487.15667847 -160.45922852 486.33587646 C-160.51421824 474.59644787 -159.41478776 463.60118834 -157 452.125 C-153.73075606 436.53203652 -153.36694809 421.96561817 -154 406 C-154.03803137 404.29693678 -154.0735082 402.59381297 -154.10546875 400.890625 C-154.76236036 376.23494442 -157.32772247 345.07582924 -169 323 C-169.598125 321.8553125 -170.19625 320.710625 -170.8125 319.53125 C-174.83157957 312.08234315 -179.50949696 305.44788067 -185 299 C-185.6703125 298.13375 -186.340625 297.2675 -187.03125 296.375 C-192.10153996 290.25845973 -199.30077324 288.05792366 -206.57324219 285.44165039 C-218.76346538 280.98081698 -230.83158564 275.38867657 -240 266 C-242.64 266 -245.28 266 -248 266 C-248.61875 265.21625 -249.2375 264.4325 -249.875 263.625 C-251.89858661 261.03162353 -251.89858661 261.03162353 -254 259 C-255.65 259.33 -257.3 259.66 -259 260 C-265.73659876 251.91608149 -267.36730797 244.27635574 -269 234 C-271.31 234.33 -273.62 234.66 -276 235 C-279 231 -279 231 -279 216 C-280.381875 215.649375 -281.76375 215.29875 -283.1875 214.9375 C-303.40072249 208.80796145 -320.62347353 193.96486929 -331.02929688 175.82275391 C-338.35838375 162.06043937 -340.3808564 146.96070009 -336.03515625 131.90234375 C-329.92883496 114.78160141 -319.03036115 102.69831278 -302.6875 94.6875 C-294.02155761 90.93921889 -284.52446609 87.62192959 -275 88 C-274.90332031 87.17242187 -274.80664062 86.34484375 -274.70703125 85.4921875 C-269.29074866 58.73994088 -243.45923647 34.73967757 -222 20 C-221.45601563 19.62230469 -220.91203125 19.24460938 -220.3515625 18.85546875 C-197.31383906 2.98385744 -171.99596654 -4.19495155 -144.7824707 -9.41040039 C-138.12561658 -10.71155094 -131.56965554 -12.3169213 -125 -14 C-117.46556043 -15.91961011 -109.93009752 -17.75127545 -102.3125 -19.3125 C-101.56033203 -19.47169922 -100.80816406 -19.63089844 -100.03320312 -19.79492188 C-64.81916076 -26.78843685 -28.84202357 -22.18617198 0 0 Z "
          fill="#CCB496" transform="translate(600,30)"/>
    <!-- Body Outline Left -->
    <path d="M0 0 C3.51191131 -0.512361 6.64484454 -1.07662849 9.875 -2.5625 C16.17861225 -5.46216164 25.22962313 -4.89746812 31.8125 -2.8125 C45.95857037 2.8039361 53.78225941 10.93721457 60.75 24.375 C66.17662485 40.11221206 65.75489181 54.04170981 62 70 C68.34811165 75.98639589 75.13774192 81.24505027 82.14624023 86.43041992 C82.85852783 86.9638501 83.57081543 87.49728027 84.3046875 88.046875 C84.94390137 88.51963867 85.58311523 88.99240234 86.24169922 89.47949219 C88.16362041 91.14149236 89.54779462 92.92254728 91 95 C90.835 95.763125 90.67 96.52625 90.5 97.3125 C89.69870907 101.3142328 89.69870907 101.3142328 91.27734375 104.8984375 C92.09912109 106.12433594 92.09912109 106.12433594 92.9375 107.375 C93.75541016 108.59316406 93.75541016 108.59316406 94.58984375 109.8359375 C97.51135821 114.31936966 97 114.51072188 97 121 C96.67 121.33 96.34 121.66 96 122 C93.69 121.67 91.38 121.34 89 121 C89.52400391 122.03060547 89.52400391 122.03060547 90.05859375 123.08203125 C90.51363281 123.98308594 90.96867188 124.88414062 91.4375 125.8125 C91.88996094 126.70582031 92.34242188 127.59914062 92.80859375 128.51953125 C94.69993732 132.45724656 95.1133908 135.36178189 95.0625 139.6875 C95.05347656 140.68136719 95.04445313 141.67523438 95.03515625 142.69921875 C95 145 95 145 93 148 C91.02 147.67 89.04 147.34 87 147 C86.67 151.62 86.34 156.24 86 161 C77.15185821 177.93436025 66.09953889 193.41396063 54.5 208.5625 C33.06381241 236.76031843 29.96888767 268.62455399 34.5871582 302.97241211 C42.94520756 360.15044984 67.86584945 407.42736426 98.08203125 455.953125 C109.46714511 474.28742033 119.40331683 492.69328329 119.375 514.8125 C119.37701416 515.81514893 119.37902832 516.81779785 119.38110352 517.85083008 C119.29196463 524.53624679 118.46217823 530.68983607 116.9375 537.1875 C114.76762742 546.5010201 115.09063115 554.80348014 115.82421875 564.27539062 C118.14895441 600.30879328 118.14895441 600.30879328 107.6328125 612.59765625 C103.73278147 616.55277246 103.62991851 616.05286878 97 617 C97.15847412 617.49854492 97.31694824 617.99708984 97.48022461 618.51074219 C98.1955039 621.93628827 98.23584074 625.34247117 98.31640625 628.828125 C98.33718735 629.57713074 98.35796844 630.32613647 98.37937927 631.09783936 C98.44457088 633.48180288 98.50361783 635.86587312 98.5625 638.25 C98.60571416 639.86980254 98.64932937 641.48959443 98.69335938 643.109375 C98.80022096 647.07280832 98.90157333 651.0363486 99 655 C99.52843506 656.08192627 100.05687012 657.16385254 100.60131836 658.27856445 C102.60976766 662.39145988 104.61672555 666.50508171 106.62329102 670.61889648 C107.48292648 672.38080585 108.34293728 674.14253215 109.20336914 675.90405273 C111.72569523 681.06825342 114.24085538 686.23583944 116.74526978 691.40875244 C117.5839537 693.14078824 118.42394714 694.87219053 119.26522827 696.60296631 C128.05212361 714.71001053 128.05212361 714.71001053 130.4375 723 C130.79158936 724.18057983 130.79158936 724.18057983 131.15283203 725.38500977 C137.52447355 747.10814317 134.59837892 764.38875295 124.3125 784.4375 C118.87055461 794.12137204 111.5730687 802.60207464 104.07421875 810.7421875 C102.20979587 812.77163463 100.41225446 814.84034156 98.625 816.9375 C93.18407846 823.19201728 87.15505912 828.92048455 81.2265625 834.70703125 C78.9786028 836.79091442 78.9786028 836.79091442 78 839 C79.00353516 839.185625 79.00353516 839.185625 80.02734375 839.375 C94.14791863 842.40760669 109.71212011 848.56818016 118 861 C118 863.31 118 865.62 118 868 C110.81359386 875.18640614 102.98763565 875.43288951 93.2355957 875.46801758 C91.76121683 875.46006396 90.28684863 875.44984717 88.8125 875.4375 C88.06044281 875.43479095 87.30838562 875.43208191 86.53353882 875.42929077 C66.22362081 875.31845792 42.91106745 873.63805781 27 860 C24.75896849 855.51793698 26 850.01109879 26 845 C28.31 839.39 30.62 833.78 33 828 C32.70444848 819.06125639 32.70444848 819.06125639 28 813 C26.25156882 811.87256334 24.5011906 810.7481458 22.75 809.625 C21.77546875 808.99851562 20.8009375 808.37203125 19.796875 807.7265625 C14.49669387 804.45466298 12.06896052 803.90842006 6 805 C4.15134867 805.46345004 2.30621607 805.94105317 0.46386719 806.42895508 C-5.54690227 807.9485233 -11.53569408 808.96942784 -17.671875 809.82421875 C-19.24452118 810.05090996 -19.24452118 810.05090996 -20.84893799 810.28218079 C-24.14848882 810.75645232 -27.44918319 811.22213023 -30.75 811.6875 C-33.00789433 812.01049622 -35.26570768 812.33405903 -37.5234375 812.65820312 C-43.01470762 813.44534282 -48.50693933 814.22545977 -54 815 C-54.61195976 816.03386841 -54.61195976 816.03386841 -55.23628235 817.08862305 C-55.77359482 817.99136963 -56.31090729 818.89411621 -56.86450195 819.82421875 C-57.39622513 820.71971436 -57.9279483 821.61520996 -58.4757843 822.5378418 C-61.39219682 827.24890009 -65.1320824 831.0642242 -69 835 C-69.77730469 835.80179688 -70.55460938 836.60359375 -71.35546875 837.4296875 C-83.5308257 849.24639052 -98.97668177 857.3648308 -114 865 C-113.29875 865.35191406 -112.5975 865.70382812 -111.875 866.06640625 C-102.07077207 871.16833464 -95.43895669 876.3118584 -90 886 C-90 896 -90 896 -95 902 C-108.34615776 908.26452303 -125.10810908 907.461106 -139 903 C-152.2850825 898.03403981 -168.36370578 890.27258844 -175 877 C-175 866 -175 866 -172.84765625 862.16796875 C-171.91913635 860.50788771 -170.9907583 858.84772733 -170.0625 857.1875 C-169.35963867 855.93743164 -169.35963867 855.93743164 -168.64257812 854.66210938 C-168.19462891 853.85966797 -167.74667969 853.05722656 -167.28515625 852.23046875 C-166.87144775 851.49207764 -166.45773926 850.75368652 -166.03149414 849.99291992 C-164.03597894 846.13744286 -163.89149466 843.09099633 -163.9375 838.8125 C-163.95103516 837.18248047 -163.95103516 837.18248047 -163.96484375 835.51953125 C-164.15180504 822.12063902 -178.65524201 804.51661715 -185.30859375 793.015625 C-186.97041238 790.05275205 -188.50661037 787.05071643 -190 784 C-192.4169017 784.70753858 -194.83354265 785.41594624 -197.25 786.125 C-198.39867554 786.46168701 -198.39867554 786.46168701 -199.57055664 786.80517578 C-203.60896322 787.99186296 -207.64274277 789.19116788 -211.66796875 790.421875 C-236.52379993 798.01456675 -261.49838624 804.0652045 -287 809 C-287.68942688 809.13354889 -288.37885376 809.26709778 -289.08917236 809.4046936 C-359.48351167 822.97982441 -431.26553803 814.61288622 -491.55541992 773.90600586 C-506.62044699 763.42376125 -521.26271904 751.14161384 -533 737 C-533.77085937 736.14019531 -534.54171875 735.28039062 -535.3359375 734.39453125 C-548.23785672 719.88955825 -559.17225104 703.27636764 -568 686 C-568.40025391 685.21866699 -568.80050781 684.43733398 -569.21289062 683.63232422 C-578.37342081 665.53992531 -585.73332098 646.85566724 -590 627 C-590.41185547 625.12441406 -590.41185547 625.12441406 -590.83203125 623.2109375 C-591.61550837 619.48266709 -592.32519393 615.74936627 -593 612 C-593.20753906 610.90300781 -593.41507813 609.80601562 -593.62890625 608.67578125 C-597.38673413 585.62952218 -596.46101518 561.50230723 -587 540 C-584.525 537.525 -584.525 537.525 -582 535 C-577 535 -577 535 -574.75 537 C-569.08201333 542.71274179 -567.0902319 550.42378969 -565.0625 558 C-564.53760309 559.88443382 -564.01155277 561.76854673 -563.484375 563.65234375 C-563.22978516 564.56999512 -562.97519531 565.48764648 -562.71289062 566.43310547 C-546.19289204 625.91641545 -511.54313944 684.97045415 -456.85205078 716.70141602 C-453.59952639 718.5293042 -450.30954274 720.27792834 -447 722 C-446.32694824 722.35433105 -445.65389648 722.70866211 -444.96044922 723.07373047 C-425.05505167 733.50576444 -404.6085674 739.75949849 -382.34326172 742.69140625 C-380.83319575 742.89027303 -379.32424962 743.09793922 -377.81689453 743.31640625 C-343.39826811 748.24114519 -307.22908687 745.44370277 -273.53466797 737.57910156 C-271.35247607 737.08053104 -269.17069976 736.63223385 -266.97265625 736.2109375 C-243.64749476 731.28203465 -217.15884482 719.47967099 -199 704 C-198.34 704 -197.68 704 -197 704 C-196.94175049 703.09447388 -196.94175049 703.09447388 -196.88232422 702.1706543 C-196.36817347 695.7412921 -195.06976503 689.94952318 -193.125 683.8125 C-192.82255371 682.83982178 -192.52010742 681.86714355 -192.20849609 680.86499023 C-187.17472166 664.94291585 -181.5926873 649.11632886 -175.50390625 633.56640625 C-170.02803331 619.57339234 -166.05735599 605.71036123 -163 591 C-162.78313538 589.96280823 -162.78313538 589.96280823 -162.56188965 588.90466309 C-156.98292386 562.64409877 -156.98292386 562.64409877 -154 536 C-153.9071875 534.91074219 -153.814375 533.82148437 -153.71875 532.69921875 C-153.34578258 525.51027164 -155.17606457 519.72147933 -157.80859375 513.12890625 C-160.79388651 505.2888423 -160.37032027 497.02437482 -160.4375 488.75 C-160.44467041 487.95333923 -160.45184082 487.15667847 -160.45922852 486.33587646 C-160.51421824 474.59644787 -159.41478776 463.60118834 -157 452.125 C-153.73075606 436.53203652 -153.36694809 421.96561817 -154 406 C-154.03803137 404.29693678 -154.0735082 402.59381297 -154.10546875 400.890625 C-154.76236036 376.23494442 -157.32772247 345.07582924 -169 323 C-169.598125 321.8553125 -170.19625 320.710625 -170.8125 319.53125 C-174.83157957 312.08234315 -179.50949696 305.44788067 -185 299 C-185.6703125 298.13375 -186.340625 297.2675 -187.03125 296.375 C-192.10153996 290.25845973 -199.30077324 288.05792366 -206.57324219 285.44165039 C-218.76346538 280.98081698 -230.83158564 275.38867657 -240 266 C-242.64 266 -245.28 266 -248 266 C-248.61875 265.21625 -249.2375 264.4325 -249.875 263.625 C-251.89858661 261.03162353 -251.89858661 261.03162353 -254 259 C-255.65 259.33 -257.3 259.66 -259 260 C-265.73659876 251.91608149 -267.36730797 244.27635574 -269 234 C-271.31 234.33 -273.62 234.66 -276 235 C-279 231 -279 231 -279 216 C-280.381875 215.649375 -281.76375 215.29875 -283.1875 214.9375 C-303.40072249 208.80796145 -320.62347353 193.96486929 -331.02929688 175.82275391 C-338.35838375 162.06043937 -340.3808564 146.96070009 -336.03515625 131.90234375 C-329.92883496 114.78160141 -319.03036115 102.69831278 -302.6875 94.6875 C-294.02155761 90.93921889 -284.52446609 87.62192959 -275 88 C-274.90332031 87.17242187 -274.80664062 86.34484375 -274.70703125 85.4921875 C-269.29074866 58.73994088 -243.45923647 34.73967757 -222 20 C-221.45601563 19.62230469 -220.91203125 19.24460938 -220.3515625 18.85546875 C-197.31383906 2.98385744 -171.99596654 -4.19495155 -144.7824707 -9.41040039 C-138.12561658 -10.71155094 -131.56965554 -12.3169213 -125 -14 C-117.46556043 -15.91961011 -109.93009752 -17.75127545 -102.3125 -19.3125 C-101.56033203 -19.47169922 -100.80816406 -19.63089844 -100.03320312 -19.79492188 C-64.81916076 -26.78843685 -28.84202357 -22.18617198 0 0 Z M-112 -10 C-112.79043701 -9.82368042 -113.58087402 -9.64736084 -114.39526367 -9.46569824 C-124.43035123 -7.2205247 -134.44823991 -4.90521782 -144.45556641 -2.53955078 C-148.81415551 -1.50991172 -153.17644268 -0.50195518 -157.546875 0.4765625 C-183.70635055 6.36958058 -207.20957668 16.7952844 -228 34 C-228.62229492 34.50563477 -229.24458984 35.01126953 -229.88574219 35.53222656 C-249.64752377 51.63404032 -264.46620225 71.85761089 -273 96 C-273 97.65 -273 99.3 -273 101 C-273.66 101 -274.32 101 -275 101 C-275.77528479 104.42573937 -276.11918778 107.57239245 -276.09765625 111.08203125 C-276.09282227 112.47905273 -276.09282227 112.47905273 -276.08789062 113.90429688 C-276.07951172 114.86400391 -276.07113281 115.82371094 -276.0625 116.8125 C-276.05573242 118.28106445 -276.05573242 118.28106445 -276.04882812 119.77929688 C-276.42597868 124.9340208 -276.42597868 124.9340208 -274 129 C-273.97812622 129.84872681 -273.97812622 129.84872681 -273.95581055 130.71459961 C-273.6311847 142.16827113 -272.9365991 153.44878561 -271.4375 164.8125 C-269.53723008 179.65302808 -269.44800531 193.08647313 -271.92553711 207.84790039 C-273.04406096 214.64032959 -273.33953501 221.10869685 -273 228 C-269.54317942 225.28475426 -269.54317942 225.28475426 -266.3125 222.3125 C-265 221 -265 221 -263 220 C-263.04640625 221.23234375 -263.0928125 222.4646875 -263.140625 223.734375 C-263.39791659 233.67527764 -263.11966407 241.78592991 -259 251 C-258.34 251.66 -257.68 252.32 -257 253 C-256.01 249.04 -255.02 245.08 -254 241 C-253.34 241.33 -252.68 241.66 -252 242 C-251.58427734 243.58941406 -251.58427734 243.58941406 -251.16015625 245.2109375 C-250.794386 246.59898869 -250.42849428 247.98700787 -250.0625 249.375 C-249.88009766 250.07367188 -249.69769531 250.77234375 -249.50976562 251.4921875 C-248.51487491 255.33955098 -248.51487491 255.33955098 -247 259 C-246.34 259 -245.68 259 -245 259 C-244.34 258.01 -243.68 257.02 -243 256 C-240.69 258.64 -238.38 261.28 -236 264 C-223.70513683 270.38168522 -211.15178013 275.83154298 -198.3371582 281.07543945 C-185.96456533 286.15102978 -174.10472714 291.45362572 -163 299 C-168.445 297.515 -168.445 297.515 -174 296 C-174.99 296.33 -175.98 296.66 -177 297 C-176.3709375 297.8971875 -175.741875 298.794375 -175.09375 299.71875 C-152.67194125 332.18260583 -148.78839917 368.46774614 -147 407 C-144.53338745 403.84509916 -143.12387504 401.04846564 -141.8125 397.25 C-141.46832031 396.26515625 -141.12414062 395.2803125 -140.76953125 394.265625 C-140.51558594 393.51796875 -140.26164062 392.7703125 -140 392 C-140.56621616 399.67892486 -141.8712533 407.14802902 -143.32808113 414.7031002 C-144.01967585 418.31136046 -144.68415077 421.92467191 -145.35351562 425.53710938 C-146.19664215 430.08038567 -147.04673829 434.62190399 -147.92797852 439.15795898 C-156.69397666 482.71606262 -156.69397666 482.71606262 -145.3046875 524.2265625 C-142.72927812 527.72726867 -140.21528128 530.48988193 -136.15234375 532.1953125 C-133.13689331 533.48711006 -130.16053738 534.84734045 -127.19140625 536.2421875 C-114.98704179 541.9626057 -102.66689258 547.24072898 -90.15921021 552.24978638 C-50.13880536 568.29179195 -50.13880536 568.29179195 -45 576 C-43.02 584.91 -41.04 593.82 -39 603 C-38.34 603.99 -37.68 604.98 -37 606 C-36.29488281 605.39414062 -35.58976563 604.78828125 -34.86328125 604.1640625 C-25.60278521 597.16499728 -14.20093435 595.96336663 -3 595 C-2.20956801 579.22063538 -3.87661161 562.26730527 -11 548 C-11.59361328 546.79537109 -11.59361328 546.79537109 -12.19921875 545.56640625 C-16.02099862 538.94428317 -21.90944397 534.78767795 -28.02099609 530.41699219 C-30.16784538 528.87982056 -32.29718951 527.3201575 -34.42578125 525.7578125 C-41.79091126 520.37690971 -49.22276933 515.15139927 -56.82592773 510.11035156 C-62.2436214 506.5082791 -67.62035364 502.84604701 -73 499.1875 C-74.1158692 498.43031465 -75.23175457 497.67315312 -76.34765625 496.91601562 C-77.40855469 496.19478516 -78.46945312 495.47355469 -79.5625 494.73046875 C-80.51253906 494.08489014 -81.46257812 493.43931152 -82.44140625 492.77416992 C-84.66834593 491.22997425 -86.84595684 489.643725 -89 488 C-86.03 488.33 -83.06 488.66 -80 489 C-79.97421875 488.18660156 -79.9484375 487.37320312 -79.921875 486.53515625 C-78.85824494 465.04499442 -72.26301431 443.74155577 -60 426 C-59.34 425.67 -58.68 425.34 -58 425 C-63.54436241 443.97888944 -63.54436241 443.97888944 -66.5625 452.0625 C-71.39333234 465.37865797 -74.83521337 477.75569694 -74 492 C-73.42258057 492.36125977 -72.84516113 492.72251953 -72.25024414 493.09472656 C-18.15274944 527.02018328 -18.15274944 527.02018328 -9.375 539.75 C-8.82585938 540.52859375 -8.27671875 541.3071875 -7.7109375 542.109375 C-3.54487552 549.1479272 -1.26709772 556.04073115 0.1875 564.0625 C0.35185547 564.90876953 0.51621094 565.75503906 0.68554688 566.62695312 C4.7911219 588.18537747 5.60500326 612.11186358 -5 632 C-8.21325844 636.21849118 -8.74415328 636.89766131 -14 639 C-21 639 -21 639 -31 634 C-44.16651573 616.88352955 -47.94968658 596.12043285 -50 575 C-50.51884766 574.79318604 -51.03769531 574.58637207 -51.57226562 574.37329102 C-66.74213613 568.31645046 -81.87672869 562.17212712 -97 556 C-98.01060486 555.58826538 -98.01060486 555.58826538 -99.04162598 555.16821289 C-113.14873076 549.4180392 -126.88677503 543.37056015 -140.21435547 535.97045898 C-142.12139763 534.93402303 -144.05387945 533.96073288 -146 533 C-147.00137497 539.62611945 -147.9443797 546.22175222 -148.54980469 552.89599609 C-150.41113278 572.45810041 -154.97677786 591.76416154 -159.9375 610.75 C-160.23672363 611.91305664 -160.53594727 613.07611328 -160.84423828 614.27441406 C-163.06612473 622.51318296 -165.98562394 630.33789043 -169.13354492 638.25244141 C-172.0234275 645.54043097 -174.64810007 652.92567866 -177.28979492 660.30639648 C-178.19378913 662.83005724 -179.10353367 665.3515963 -180.01367188 667.87304688 C-183.24230983 676.85111949 -186.3174977 685.84033389 -189 695 C-189.24419678 695.82234131 -189.48839355 696.64468262 -189.73999023 697.49194336 C-192.41278861 706.58487895 -194.76262035 715.58113996 -196 725 C-196.66 725 -197.32 725 -198 725 C-198.33 721.04 -198.66 717.08 -199 713 C-200.381875 713.928125 -201.76375 714.85625 -203.1875 715.8125 C-229.32848172 732.35954086 -257.31015288 742.79805335 -287.6875 748.25 C-288.52788818 748.40122314 -289.36827637 748.55244629 -290.23413086 748.70825195 C-306.96431872 751.50108471 -323.68750443 752.37994693 -340.625 752.3125 C-341.58289429 752.31067719 -342.54078857 752.30885437 -343.52770996 752.30697632 C-358.86354084 752.25804167 -373.85854964 751.63573395 -389 749 C-390.02416016 748.82307617 -391.04832031 748.64615234 -392.10351562 748.46386719 C-433.17115694 741.12039457 -469.12257046 722.03101587 -499 693 C-499.48839355 692.53207031 -499.97678711 692.06414063 -500.47998047 691.58203125 C-521.90784594 671.02510018 -536.9676224 645.90324128 -551 620 C-552.10408203 621.15048828 -552.10408203 621.15048828 -553.23046875 622.32421875 C-555.54660108 624.56194886 -557.56847728 626.18468991 -560.3125 627.8125 C-561.529375 628.534375 -562.74625 629.25625 -564 630 C-577 630 -577 630 -582 628 C-570.16939642 683.43482819 -533.3571783 737.49278138 -486.0703125 768.609375 C-482.10235455 771.16798128 -478.0613917 773.59346379 -474 776 C-473.32308105 776.40959961 -472.64616211 776.81919922 -471.94873047 777.24121094 C-440.20613274 796.35391021 -403.23054669 806.96555319 -366.203125 807.23828125 C-365.10277924 807.24789383 -364.00243347 807.25750641 -362.8687439 807.26741028 C-359.32913074 807.29200239 -355.7896885 807.30465412 -352.25 807.3125 C-350.44435577 807.31742462 -350.44435577 807.31742462 -348.60223389 807.32244873 C-327.88356667 807.34074443 -307.17030214 806.84942176 -287.01269531 801.50927734 C-282.73368852 800.42654952 -278.38766969 799.6254843 -274.0625 798.75 C-262.2241351 796.31857915 -250.47985847 793.56008541 -238.74560547 790.67138672 C-236.33449389 790.08179426 -233.92064976 789.50735601 -231.50390625 788.94140625 C-222.20070978 786.73680402 -213.20051909 783.86511603 -204.17236328 780.74560547 C-200.45715854 779.47046102 -196.72830413 778.23621854 -193 777 C-193.65656971 773.49619048 -194.50918518 770.11076522 -195.5 766.6875 C-196.77244969 762.10668111 -197.55390267 757.72863166 -198 753 C-197.34 753 -196.68 753 -196 753 C-195.72631592 753.86592773 -195.45263184 754.73185547 -195.1706543 755.62402344 C-193.1782496 761.36979447 -190.44995288 766.77780481 -187.8125 772.25 C-187.50786835 772.88438995 -187.20323669 773.51877991 -186.88937378 774.1723938 C-181.23827772 785.89582777 -174.91318059 797.09847105 -168.30859375 808.3125 C-156.80919785 827.88704162 -156.80919785 827.88704162 -156.9375 839.1875 C-156.94426758 840.31188477 -156.94426758 840.31188477 -156.95117188 841.45898438 C-156.98511939 846.78874396 -158.47753349 849.98894216 -160.8125 854.6875 C-161.16892578 855.40873047 -161.52535156 856.12996094 -161.89257812 856.87304688 C-163.78806219 860.68140477 -165.74207126 864.38873857 -168 868 C-168.60024505 874.9714169 -168.60024505 874.9714169 -165 880 C-151.8580174 890.04215378 -138.23313722 896.87572191 -122 900 C-123.57630677 896.12678907 -126.07747669 893.75264837 -129.0625 890.875 C-133.90277778 886.19444444 -133.90277778 886.19444444 -135 884 C-126.91226211 886.86440717 -121.03714306 892.07392829 -116 899 C-114.58344207 899.0272415 -113.16672955 899.04650467 -111.75 899.0625 C-110.56664062 899.07990234 -110.56664062 899.07990234 -109.359375 899.09765625 C-107.09308998 899.00385306 -105.1711105 898.63241063 -103 898 C-103.5670244 893.04961943 -103.5670244 893.04961943 -106.37109375 890.2265625 C-107.39333531 889.02613205 -108.41546493 887.82560626 -109.4375 886.625 C-109.95376953 886.02171875 -110.47003906 885.4184375 -111.00195312 884.796875 C-114.88671875 880.2265625 -114.88671875 880.2265625 -116 878 C-101.53069807 887.4079058 -101.53069807 887.4079058 -99 895 C-98.01 894.67 -97.02 894.34 -96 894 C-97.13597481 886.04817632 -99.25667914 883.37761012 -105 878 C-109.42969959 874.93562747 -114.24818465 872.51779797 -119 870 C-119.99 869.34 -120.98 868.68 -122 868 C-122 866.35 -122 864.7 -122 863 C-117.25040502 858.71153075 -112.2770948 855.83368756 -106.625 852.875 C-82.94012566 840.10208562 -64.37229883 825.46933569 -55.02734375 799.2734375 C-45.61589448 767.49338089 -63.76391513 732.98129186 -77 705 C-59.04025372 721.78307325 -48.17099235 754.73118689 -46.78515625 778.71875 C-46.46861131 788.44358177 -47.88439339 797.53014183 -50 807 C-49.44876465 806.92483154 -48.8975293 806.84966309 -48.32958984 806.7722168 C-46.651971 806.54345059 -44.97431419 806.31496276 -43.29663086 806.08666992 C-41.32060827 805.81669441 -39.34486537 805.54466515 -37.36938477 805.27075195 C-32.37699188 804.58131688 -27.38594107 803.91810981 -22.37890625 803.34375 C-9.47268076 801.82007433 2.66524525 799.10388532 15 795 C15.69706055 794.76941895 16.39412109 794.53883789 17.11230469 794.30126953 C31.08421356 789.54141834 44.14721977 782.09299033 54 771 C55.66666667 769.33333333 57.33333333 767.66666667 59 766 C64.41131572 760.26738741 69.62171857 754.56742214 74 748 C67.5328008 768.94600338 49.78953367 785.02184186 31.19921875 795.3359375 C28.49933439 796.74027296 25.84929967 797.94153596 23 799 C23.66547035 801.99588321 23.66547035 801.99588321 25.5390625 803.06640625 C31.81573047 807.56821118 37.6841338 812.35764154 40 820 C40 830 40 830 33 847 C33 849.97 33 852.94 33 856 C40.21343712 861.7707497 48.03350168 863.4006734 57 865.125 C57.83789062 865.29386719 58.67578125 865.46273437 59.5390625 865.63671875 C67.90399526 867.28121792 76.03763132 868.16636438 84.5625 868.0625 C85.6462793 868.05573242 85.6462793 868.05573242 86.75195312 868.04882812 C88.50133944 868.03724279 90.25068199 868.01931762 92 868 C89.29836235 865.10007702 86.74910213 863.10246583 83.25 861.25 C82.45078125 860.82203125 81.6515625 860.3940625 80.828125 859.953125 C79.04803856 858.84589767 79.04803856 858.84589767 77 859 C77 858.01 77 857.02 77 856 C79.54550843 856.90695075 82.08601056 857.82511418 84.625 858.75 C85.69427734 859.12898437 85.69427734 859.12898437 86.78515625 859.515625 C91.31238525 861.17699344 95.05900757 863.15693801 99 866 C102.25077841 868.66114309 102.25077841 868.66114309 108 867 C105.54520597 861.26351372 105.54520597 861.26351372 94 855 C94.33 854.01 94.66 853.02 95 852 C87.69148844 848.93595048 80.36815121 845.91791829 73 843 C72.67 842.67 72.34 842.34 72 842 C72 832.90665004 76.26161944 828.91632777 82.45166016 822.43164062 C85.05631089 819.8545656 87.68076786 817.29940128 90.3125 814.75 C108.19316907 797.10827774 127.06170484 775.35470706 127.375 748.875 C127.38786959 720.34311912 110.67105538 693.75000537 98 669 C95.62962245 670.96926367 95.62962245 670.96926367 95.484375 674.6640625 C93.58681629 687.66313923 90.69070911 699.70021447 86 712 C86.10957031 711.03707031 86.21914063 710.07414063 86.33203125 709.08203125 C86.58594595 706.84512469 86.83437658 704.60790284 87.07373047 702.36938477 C87.58600831 697.59241613 88.15204751 692.83077148 88.80078125 688.0703125 C91.87052361 664.11762385 91.28417348 640.10228273 91 616 C88.03 613.36 85.06 610.72 82 608 C76.50632653 597.85270508 72.36469083 588.36690494 70 577 C69.82484863 576.23139648 69.64969727 575.46279297 69.46923828 574.67089844 C67.74408882 566.4375803 67.60818977 558.25081301 67.625 549.875 C67.62282471 548.7656459 67.62282471 548.7656459 67.62060547 547.63388062 C67.62321909 535.49442104 68.80561909 523.89265214 71.125 511.95703125 C72.76432503 503.14014301 71.29972516 495.72199525 69.375 487.0625 C69.10284668 485.82193848 68.83069336 484.58137695 68.55029297 483.30322266 C63.95118701 462.55025404 58.45453265 442.25235106 52 422 C51.62456055 420.81873535 51.24912109 419.6374707 50.86230469 418.42041016 C48.58958655 411.27551637 46.30255608 404.13533253 44 397 C60.97722648 424.56868477 69.81408379 457.25590681 75 489 C75.66 489.66 76.32 490.32 77 491 C77.99 489.35 78.98 487.7 80 486 C79.05633836 494.77050227 77.98568628 503.49070846 76.5 512.1875 C76.37222168 512.94708008 76.24444336 513.70666016 76.11279297 514.48925781 C75.55402562 517.7990445 74.98075032 521.10286181 74.36328125 524.40234375 C71.31287483 542.25046639 72.49866315 560.32658542 76 578 C76.66 578.33 77.32 578.66 78 579 C79.03125 578.525625 80.0625 578.05125 81.125 577.5625 C87.31217972 574.71639733 93.70849077 574.86838946 100.375 574.9375 C101.20644531 574.94201172 102.03789063 574.94652344 102.89453125 574.95117188 C104.92971897 574.96286836 106.96486923 574.98080065 109 575 C108.98428955 574.14470703 108.9685791 573.28941406 108.95239258 572.40820312 C108.50249201 544.20684104 108.50249201 544.20684104 111.31640625 531.94140625 C117.59137394 500.7479729 101.67170612 474.37562549 85.53955078 449.18432617 C80.53607438 441.34565335 75.87140313 433.33000239 71.27734375 425.24609375 C70.05569441 423.0979336 68.82551249 420.95487238 67.59375 418.8125 C62.73939643 410.32790741 58.20130324 401.72210727 53.93652344 392.92626953 C53.04383862 391.09016859 52.1355895 389.26165905 51.2265625 387.43359375 C43.55316037 371.61805226 37.85658397 355.13649528 34 338 C33.66397915 336.65789125 33.32405022 335.31675565 32.98046875 333.9765625 C25.19725845 303.20328164 23.03244842 271.06769531 30 240 C30.33777013 238.33422684 30.67393049 236.66810298 31 235 C28.69 236.65 26.38 238.3 24 240 C25.64111017 234.69550841 29.01149071 230.67975079 32.3125 226.3125 C33.58930472 224.60213186 34.86532862 222.89118059 36.140625 221.1796875 C37.11032227 219.8817627 37.11032227 219.8817627 38.09960938 218.55761719 C41.50460971 213.97503965 44.83495556 209.33909925 48.16870117 204.70458984 C50.87079536 200.94897009 53.58115528 197.20031634 56.31640625 193.46875 C61.77041077 186.01149548 67.09421822 178.50092362 72.125 170.75 C72.57439941 170.05898193 73.02379883 169.36796387 73.48681641 168.65600586 C80.55239029 157.626056 80 153.4970127 80 138 C86 140 86 140 89 142 C89.56506752 133.14727554 86.40495594 126.48842509 82 119 C81.67 117.68 81.34 116.36 81 115 C84.3 115.33 87.6 115.66 91 116 C88.92512155 111.29878039 86.50888284 108.17736793 82.8125 104.625 C81.91144531 103.75101562 81.01039063 102.87703125 80.08203125 101.9765625 C78.2367256 99.7705003 78.2367256 99.7705003 76 100 C76.33 99.01 76.66 98.02 77 97 C79.31 96.67 81.62 96.34 84 96 C80.45005313 93.13148717 76.84381327 90.3564529 73.1875 87.625 C72.14464844 86.84511719 71.10179687 86.06523437 70.02734375 85.26171875 C69.02832031 84.51535156 68.02929688 83.76898438 67 83 C65.41637658 81.81288687 63.83299466 80.62545143 62.25 79.4375 C61.61578125 78.96183594 60.9815625 78.48617187 60.328125 77.99609375 C59.88984375 77.66738281 59.4515625 77.33867187 59 77 C58.92523437 77.65484375 58.85046875 78.3096875 58.7734375 78.984375 C56.74834344 93.04091026 50.37977038 102.34017221 39.25 110.6875 C30.03326318 116.8921406 19.77524733 118.92360197 9 121 C11.475 126.445 11.475 126.445 14 132 C14 150.01208125 12.90815691 157.60332347 1 171 C-6.34348836 174.67174418 -8.7443633 175.02462283 -16.125 175.0625 C-16.9809375 175.07087891 -17.836875 175.07925781 -18.71875 175.08789062 C-23.26678411 175.10538306 -27.52383164 174.93192358 -32 174 C-32.83917969 174.94359375 -32.83917969 174.94359375 -33.6953125 175.90625 C-45.07164612 188.05076049 -60.43880384 196.62307404 -77.36328125 197.203125 C-94.16880905 197.47363309 -113.30598525 196.95891063 -126.38671875 184.77734375 C-126.91910156 184.19082031 -127.45148438 183.60429687 -128 183 C-133.01129699 185.07110682 -133.01129699 185.07110682 -137 193 C-137.66 193.33 -138.32 193.66 -139 194 C-138.03948809 185.35539282 -137.35867015 183.64731046 -132 178 C-125.96706464 173.93432617 -126.38939537 175 -117 175 C-116.67 175.66 -116.34 176.32 -116 177 C-118.31 177.33 -120.62 177.66 -123 178 C-123 178.99 -123 179.98 -123 181 C-111.04958271 189.14497715 -99.05934921 192.39569794 -84.6875 192.3125 C-83.67075195 192.30686035 -82.65400391 192.3012207 -81.60644531 192.29541016 C-64.53592694 192.01919703 -51.95796333 186.25637953 -40 174 C-36.58587548 169.85052558 -34.84833564 167.2515262 -34.9375 161.8125 C-34.9684375 159.9253125 -34.9684375 159.9253125 -35 158 C-36.24394531 158.03480469 -37.48789062 158.06960938 -38.76953125 158.10546875 C-52.16245281 158.37074178 -62.4162904 157.23624328 -74 150 C-76 146 -76 146 -76 138 C-69.13342525 125.98349419 -57.3729463 119.99973838 -44.3125 116.1875 C-34.37966442 113.8580603 -24.30979413 114.01008823 -15 118 C-13.29159719 119.63412443 -12.06546953 120.86906094 -11 123 C-11 133 -11 133 -17 145 C-19.21354167 146.953125 -21.42708333 148.90625 -23.640625 150.859375 C-25.83011856 152.84586916 -27.92901285 154.89101308 -30 157 C-30 160.63 -30 164.26 -30 168 C-25.29538677 169.86132673 -21.1242304 170.2509496 -16.125 170.125 C-15.43664062 170.11597656 -14.74828125 170.10695313 -14.0390625 170.09765625 C-7.44674287 170.00609626 -8.44912704 169.6557044 -1 165 C7.06253664 155.10506867 9 148.26108334 9 135 C2.39406977 121.78813954 -1.94591208 117.68499077 -15 113 C-15.82886719 112.65710938 -16.65773438 112.31421875 -17.51171875 111.9609375 C-31.44462831 106.58025343 -49.40946126 107.20558426 -63 113 C-67.06797944 114.88247355 -71.0569643 116.86862935 -75 119 C-75 118.67 -75 118.34 -75 118 C-64.84437521 109.7450089 -54.54567387 105.99423416 -42 103 C-42.78375 102.113125 -43.5675 101.22625 -44.375 100.3125 C-45.58954951 98.88024822 -46.79686433 97.44185306 -48 96 C-48.7734375 95.07703125 -49.546875 94.1540625 -50.34375 93.203125 C-64.29492751 76.09930836 -71.80333461 57.22609911 -70 35 C-68.52508208 23.45086593 -63.0833673 11.70416544 -54.421875 3.78125 C-46.18937918 -2.27361789 -37.19908139 -5.98009186 -27 -7 C-51.18201175 -23.12134116 -85.95526755 -15.81588202 -112 -10 Z "
          fill="#0E0D0C" transform="translate(600,30)"/>
    <!-- Eyepatch Right -->
    <path d="M0 0 C1.01764435 0.00638992 1.01764435 0.00638992 2.05584717 0.01290894 C21.58199728 0.18324356 39.06335426 5.25912458 53.53515625 19.12109375 C67.12924273 34.10575697 70.89056142 52.67573257 69.9453125 72.27783203 C69.45631638 77.99786411 67.73095659 83.21022599 65.75 88.5625 C65.31429687 89.80773437 64.87859375 91.05296875 64.4296875 92.3359375 C56.91731888 113.00739758 42.47417871 129.2759609 22.625 138.75 C13.89865288 142.74259997 4.95188069 145.86798188 -4.25 148.5625 C-5.27818848 148.88009277 -5.27818848 148.88009277 -6.32714844 149.20410156 C-16.52791165 152.28532779 -26.48894885 152.96165886 -37.125 153.0625 C-38.33712158 153.08103027 -39.54924316 153.09956055 -40.7980957 153.11865234 C-53.54225013 153.02973356 -65.54044248 149.39840985 -75.21484375 140.8203125 C-87.81086517 127.53523082 -89.76518838 110.76840942 -89.5234375 93.34375 C-88.6565525 67.35436617 -75.14433263 40.09152169 -56.33984375 22.3046875 C-39.64031786 8.38321358 -22.1096443 -0.25028238 0 0 Z "
          fill="#594A39" transform="translate(431.25,64.4375)"/>
    <!-- Body Outline Bottom Right -->
    <path d="M0 0 C4 2 4 2 9 11 C9 13.31 9 15.62 9 18 C8.67 18.33 8.34 18.66 8 19 C5.69 18.67 3.38 18.34 1 18 C1.34933594 18.68707031 1.69867187 19.37414062 2.05859375 20.08203125 C2.51363281 20.98308594 2.96867188 21.88414062 3.4375 22.8125 C3.88996094 23.70582031 4.34242188 24.59914062 4.80859375 25.51953125 C6.69993732 29.45724656 7.1133908 32.36178189 7.0625 36.6875 C7.05347656 37.68136719 7.04445313 38.67523438 7.03515625 39.69921875 C7 42 7 42 5 45 C3.02 44.67 1.04 44.34 -1 44 C-1.33 48.62 -1.66 53.24 -2 58 C-10.84814179 74.93436025 -21.90046111 90.41396063 -33.5 105.5625 C-54.93618759 133.76031843 -58.03111233 165.62455399 -53.4128418 199.97241211 C-45.05479244 257.15044984 -20.13415055 304.42736426 10.08203125 352.953125 C21.46714511 371.28742033 31.40331683 389.69328329 31.375 411.8125 C31.37701416 412.81514893 31.37902832 413.81779785 31.38110352 414.85083008 C31.29196463 421.53624679 30.46217823 427.68983607 28.9375 434.1875 C26.76762742 443.5010201 27.09063115 451.80348014 27.82421875 461.27539062 C30.14895441 497.30879328 30.14895441 497.30879328 19.6328125 509.59765625 C15.73278147 513.55277246 15.62991851 513.05286878 9 514 C9.15847412 514.49854492 9.31694824 514.99708984 9.48022461 515.51074219 C10.1955039 518.93628827 10.23584074 522.34247117 10.31640625 525.828125 C10.33718735 526.57713074 10.35796844 527.32613647 10.37937927 528.09783936 C10.44457088 530.48180288 10.50361783 532.86587312 10.5625 535.25 C10.60571416 536.86980254 10.64932937 538.48959443 10.69335938 540.109375 C10.80022096 544.07280832 10.90157333 548.0363486 11 552 C11.52843506 553.08192627 12.05687012 554.16385254 12.60131836 555.27856445 C14.60976766 559.39145988 16.61672555 563.50508171 18.62329102 567.61889648 C19.48292648 569.38080585 20.34293728 571.14253215 21.20336914 572.90405273 C23.72569523 578.06825342 26.24085538 583.23583944 28.74526978 588.40875244 C29.5839537 590.14078824 30.42394714 591.87219053 31.26522827 593.60296631 C40.05212361 611.71001053 40.05212361 611.71001053 42.4375 620 C42.79158936 621.18057983 42.79158936 621.18057983 43.15283203 622.38500977 C49.52447355 644.10814317 46.59837892 661.38875295 36.3125 681.4375 C30.87055461 691.12137204 23.5730687 699.60207464 16.07421875 707.7421875 C14.20979587 709.77163463 12.41225446 711.84034156 10.625 713.9375 C5.18407846 720.19201728 -0.84494088 725.92048455 -6.7734375 731.70703125 C-9.0213972 733.79091442 -9.0213972 733.79091442 -10 736 C-8.99646484 736.185625 -8.99646484 736.185625 -7.97265625 736.375 C6.14791863 739.40760669 21.71212011 745.56818016 30 758 C30 760.31 30 762.62 30 765 C22.81359386 772.18640614 14.98763565 772.43288951 5.2355957 772.46801758 C3.76121683 772.46006396 2.28684863 772.44984717 0.8125 772.4375 C0.06044281 772.43479095 -0.69161438 772.43208191 -1.46646118 772.42929077 C-21.77637919 772.31845792 -45.08893255 770.63805781 -61 757 C-63.24103151 752.51793698 -62 747.01109879 -62 742 C-59.69 736.39 -57.38 730.78 -55 725 C-55.29555152 716.06125639 -55.29555152 716.06125639 -60 710 C-61.74843118 708.87256334 -63.4988094 707.7481458 -65.25 706.625 C-66.22453125 705.99851562 -67.1990625 705.37203125 -68.203125 704.7265625 C-73.50330613 701.45466298 -75.93103948 700.90842006 -82 702 C-83.84865133 702.46345004 -85.69378393 702.94105317 -87.53613281 703.42895508 C-93.54690227 704.9485233 -99.53569408 705.96942784 -105.671875 706.82421875 C-107.24452118 707.05090996 -107.24452118 707.05090996 -108.84893799 707.28218079 C-112.14848882 707.75645232 -115.44918319 708.22213023 -118.75 708.6875 C-121.00789433 709.01049622 -123.26570768 709.33405903 -125.5234375 709.65820312 C-131.01470762 710.44534282 -136.50693933 711.22545977 -142 712 C-142.61195976 713.03386841 -142.61195976 713.03386841 -143.23628235 714.08862305 C-143.77359482 714.99136963 -144.31090729 715.89411621 -144.86450195 716.82421875 C-145.39622513 717.71971436 -145.9279483 718.61520996 -146.4757843 719.5378418 C-149.39219682 724.24890009 -153.1320824 728.0642242 -157 732 C-157.77730469 732.80179688 -158.55460937 733.60359375 -159.35546875 734.4296875 C-171.5308257 746.24639052 -186.97668177 754.3648308 -202 762 C-201.29875 762.35191406 -200.5975 762.70382812 -199.875 763.06640625 C-190.07077207 768.16833464 -183.43895669 773.3118584 -178 783 C-178 793 -178 793 -183 799 C-196.34615776 805.26452303 -213.10810908 804.461106 -227 800 C-240.2850825 795.03403981 -256.36370578 787.27258844 -263 774 C-263 763 -263 763 -260.84765625 759.16796875 C-259.91913635 757.50788771 -258.9907583 755.84772733 -258.0625 754.1875 C-257.35963867 752.93743164 -257.35963867 752.93743164 -256.64257812 751.66210938 C-256.19462891 750.85966797 -255.74667969 750.05722656 -255.28515625 749.23046875 C-254.87144775 748.49207764 -254.45773926 747.75368652 -254.03149414 746.99291992 C-252.03597894 743.13744286 -251.89149466 740.09099633 -251.9375 735.8125 C-251.95103516 734.18248047 -251.95103516 734.18248047 -251.96484375 732.51953125 C-252.15180504 719.12063902 -266.65524201 701.51661715 -273.30859375 690.015625 C-274.97041238 687.05275205 -276.50661037 684.05071643 -278 681 C-280.4169017 681.70753858 -282.83354265 682.41594624 -285.25 683.125 C-286.39867554 683.46168701 -286.39867554 683.46168701 -287.57055664 683.80517578 C-291.60896322 684.99186296 -295.64274277 686.19116788 -299.66796875 687.421875 C-324.52379993 695.01456675 -349.49838624 701.0652045 -375 706 C-375.68942688 706.13354889 -376.37885376 706.26709778 -377.08917236 706.4046936 C-438.47174191 718.24195806 -499.85300928 713.52629367 -556 685 C-556 683.68 -556 682.36 -556 681 C-550 679 -550 679 -546.57421875 680.65234375 C-526.81008101 689.97630992 -505.72494155 697.86728636 -484 701 C-482.79835205 701.17370117 -481.5967041 701.34740234 -480.35864258 701.52636719 C-466.87167774 703.31755967 -453.39946545 703.39410103 -439.8125 703.375 C-438.62622009 703.37578552 -437.43994019 703.37657104 -436.2177124 703.37738037 C-415.64500618 703.36108008 -395.02428297 702.81073842 -375.01269531 697.50927734 C-370.73368852 696.42654952 -366.38766969 695.6254843 -362.0625 694.75 C-350.2241351 692.31857915 -338.47985847 689.56008541 -326.74560547 686.67138672 C-324.33449389 686.08179426 -321.92064976 685.50735601 -319.50390625 684.94140625 C-311.63858373 683.07658973 -303.99690956 680.78696104 -296.37524414 678.10546875 C-291.31381763 676.34395951 -286.25279032 675.05963183 -281 674 C-281.41572266 672.89591797 -281.41572266 672.89591797 -281.83984375 671.76953125 C-282.20207031 670.79371094 -282.56429688 669.81789063 -282.9375 668.8125 C-283.29714844 667.84957031 -283.65679687 666.88664063 -284.02734375 665.89453125 C-285.86154184 660.43613452 -286.09668677 655.70451962 -286 650 C-285.34 650 -284.68 650 -284 650 C-281.47765848 654.97274934 -278.99689222 659.95676378 -276.66796875 665.0234375 C-270.95670411 677.39052209 -264.62967679 689.23761082 -257.74682617 700.97998047 C-243.80853679 724.82881766 -243.80853679 724.82881766 -243.9375 736.1875 C-243.94426758 737.31188477 -243.94426758 737.31188477 -243.95117188 738.45898438 C-243.98511939 743.78874396 -245.47753349 746.98894216 -247.8125 751.6875 C-248.16892578 752.40873047 -248.52535156 753.12996094 -248.89257812 753.87304688 C-250.78806219 757.68140477 -252.74207126 761.38873857 -255 765 C-255.43328912 771.81430466 -255.43328912 771.81430466 -253 777 C-252.46246094 777.25265625 -251.92492187 777.5053125 -251.37109375 777.765625 C-248.488104 779.26648952 -245.80288392 781.00211607 -243.0625 782.75 C-232.91863662 789.06490402 -222.75119139 793.58624177 -211 796 C-214.80475422 791.43969176 -218.74969621 787.14910608 -223 783 C-223 782.34 -223 781.68 -223 781 C-216.59146357 782.06808941 -216.57812856 782.35559412 -212.1875 786.25 C-211.29417969 787.03890625 -210.40085937 787.8278125 -209.48046875 788.640625 C-207 791 -207 791 -204 795 C-199.71 795 -195.42 795 -191 795 C-194.08473174 787.75758636 -198.57681936 782.6549405 -204 777 C-204 776.34 -204 775.68 -204 775 C-199.27489532 776.89004187 -197.76315346 778.0814487 -194.125 781.3125 C-193.22007812 782.11300781 -192.31515625 782.91351562 -191.3828125 783.73828125 C-189 786 -189 786 -187 789 C-187 789.99 -187 790.98 -187 792 C-186.34 791.67 -185.68 791.34 -185 791 C-186.0863921 783.3952553 -187.54055963 781.0799532 -193 776 C-196.44710229 773.65646274 -200.11727105 771.71776213 -203.79296875 769.76171875 C-206.40820569 768.32509042 -208.68537965 766.86662931 -211 765 C-211 763.35 -211 761.7 -211 760 C-205.86497486 755.27853393 -200.73531052 752.0138802 -194.5625 748.8125 C-171.31840386 736.34141608 -153.19083347 721.96064965 -144.02734375 696.2734375 C-134.92864807 665.54946977 -151.58093296 631.9015812 -165 605 C-165 604.01 -165 603.02 -165 602 C-157.46870301 604.51043233 -152.16454174 618.35695313 -148.73535156 625.19775391 C-136.30986578 650.76082435 -129.7374892 676.26157089 -138 704 C-137.25363281 703.82984375 -136.50726562 703.6596875 -135.73828125 703.484375 C-128.06550794 701.83958437 -120.42413081 700.64002319 -112.63598633 699.66357422 C-98.95738949 697.93210626 -86.05025331 695.46703753 -73 691 C-72.31309082 690.77086914 -71.62618164 690.54173828 -70.91845703 690.30566406 C-57.13905923 685.61610857 -43.51933011 678.21026375 -34 667 C-33.34 667 -32.68 667 -32 667 C-31.65195313 666.17242188 -31.65195313 666.17242188 -31.296875 665.328125 C-29.65178865 662.37489769 -27.56837049 660.20887779 -25.25 657.75 C-21.18284688 653.35865352 -17.44717672 648.89050681 -14 644 C-13.67 644.66 -13.34 645.32 -13 646 C-17.1140472 654.92233987 -21.45593572 662.57330663 -28 670 C-28.63808594 670.76957031 -29.27617188 671.53914062 -29.93359375 672.33203125 C-36.65697002 680.27292033 -44.35093155 686.2335921 -53.3125 691.4375 C-54.19252686 691.95098999 -54.19252686 691.95098999 -55.09033203 692.47485352 C-58.36652456 694.3112235 -61.27063405 695.50321767 -65 696 C-62.48447239 698.62034126 -59.84081226 700.98060843 -57.0625 703.3125 C-52.56868919 707.21104856 -48.91394669 711.25815994 -47 717 C-46.55578109 728.2831603 -48.78364107 731.33169974 -54 744 C-54 746.97 -54 749.94 -54 753 C-38.5787499 763.53158544 -15.08940384 764.54268212 3 764 C-1.62 761.36 -6.24 758.72 -11 756 C-11 755.01 -11 754.02 -11 753 C-1.78692599 754.53551233 6.6544707 758.15498262 14 764 C15.65 763.67 17.3 763.34 19 763 C14.85989729 758.45924219 10.17609824 755.28157862 5 752 C5 751.01 5 750.02 5 749 C3.90300781 748.60167969 2.80601562 748.20335937 1.67578125 747.79296875 C0.22125618 747.25807888 -1.23316548 746.72290775 -2.6875 746.1875 C-3.40873047 745.92646484 -4.12996094 745.66542969 -4.87304688 745.39648438 C-13.96705163 742.03294837 -13.96705163 742.03294837 -17 739 C-17 729.90665004 -12.73838056 725.91632777 -6.54833984 719.43164062 C-3.94368911 716.8545656 -1.31923214 714.29940128 1.3125 711.75 C19.19316907 694.10827774 38.06170484 672.35470706 38.375 645.875 C38.38756754 618.01275844 22.37828774 592.12087199 10 568 C9.67 568 9.34 568 9 568 C8.82984375 569.20914063 8.6596875 570.41828125 8.484375 571.6640625 C6.48117891 585.39362785 3.54387358 598.20190887 -2 611 C-2.33 611 -2.66 611 -3 611 C-2.58580686 603.85084666 -2.02715294 596.79075632 -1.02734375 589.69921875 C2.50874148 564.12677661 2.41503096 538.77821147 2 513 C-0.97 510.36 -3.94 507.72 -7 505 C-12.49367347 494.85270508 -16.63530917 485.36690494 -19 474 C-19.26272705 472.84709473 -19.26272705 472.84709473 -19.53076172 471.67089844 C-21.25591118 463.4375803 -21.39181023 455.25081301 -21.375 446.875 C-21.37717529 445.7656459 -21.37717529 445.7656459 -21.37939453 444.63388062 C-21.37678091 432.49442104 -20.19438091 420.89265214 -17.875 408.95703125 C-16.23567497 400.14014301 -17.70027484 392.72199525 -19.625 384.0625 C-19.89715332 382.82193848 -20.16930664 381.58137695 -20.44970703 380.30322266 C-26.88355645 351.27117246 -35.4506183 323.14918224 -45 295 C-44.67 294.34 -44.34 293.68 -44 293 C-35.17813862 304.9240544 -30.1210377 318.65888829 -25.56469727 332.63354492 C-24.81296905 334.93606332 -24.04529077 337.23279892 -23.27539062 339.52929688 C-19.03326058 352.30205841 -15.40406671 365.19547035 -13.25 378.5 C-13.12496094 379.23863281 -12.99992188 379.97726562 -12.87109375 380.73828125 C-12.57513754 382.49125263 -12.28662959 384.24547949 -12 386 C-10.35 384.68 -8.7 383.36 -7 382 C-7.91721646 391.12900151 -8.94940007 400.20450787 -10.5 409.25 C-10.69166748 410.38356934 -10.69166748 410.38356934 -10.88720703 411.54003906 C-11.44671596 414.83135212 -12.02189914 418.11688499 -12.63671875 421.3984375 C-15.68393118 439.24948335 -14.50189089 457.32378884 -11 475 C-9.80375 474.525625 -8.6075 474.05125 -7.375 473.5625 C-0.91742723 471.16371038 5.06180386 470.86243936 11.875 470.9375 C12.65875 470.94201172 13.4425 470.94652344 14.25 470.95117188 C16.16670014 470.96285907 18.08336048 470.98079092 20 471 C19.98428955 470.175 19.9685791 469.35 19.95239258 468.5 C19.50327007 441.33282573 19.50327007 441.33282573 22.31640625 428.9765625 C28.53728415 397.73320463 12.70324411 371.4248739 -3.46044922 346.18432617 C-8.46392562 338.34565335 -13.12859687 330.33000239 -17.72265625 322.24609375 C-18.94430559 320.0979336 -20.17448751 317.95487238 -21.40625 315.8125 C-26.26060357 307.32790741 -30.79869676 298.72210727 -35.06347656 289.92626953 C-35.95616138 288.09016859 -36.8644105 286.26165905 -37.7734375 284.43359375 C-45.44683963 268.61805226 -51.14341603 252.13649528 -55 235 C-55.33602085 233.65789125 -55.67594978 232.31675565 -56.01953125 230.9765625 C-63.5824199 201.07439005 -66.26464073 169.1477915 -59.3671875 138.93164062 C-58.90662653 136.83650105 -58.90662653 136.83650105 -59 134 C-60.65 135.32 -62.3 136.64 -64 138 C-64.33 137.01 -64.66 136.02 -65 135 C-59.80945421 127.65055463 -54.55288551 120.3638765 -49.125 113.1875 C-43.41673781 105.62689389 -37.94234167 97.91680767 -32.51318359 90.15429688 C-30.98321604 87.97610493 -29.44090401 85.80719555 -27.89453125 83.640625 C-23.07593744 76.88153556 -18.31957777 70.09698623 -13.8125 63.125 C-13.25042847 62.25935425 -13.25042847 62.25935425 -12.67700195 61.3762207 C-10.12953119 57.38303468 -8.90499026 54.26336415 -8.68359375 49.55078125 C-8.62075195 48.27944336 -8.62075195 48.27944336 -8.55664062 46.98242188 C-8.49766602 45.66081055 -8.49766602 45.66081055 -8.4375 44.3125 C-8.39431641 43.41982422 -8.35113281 42.52714844 -8.30664062 41.60742188 C-8.20064647 39.40509892 -8.09857949 37.20266527 -8 35 C-6.35 35 -4.7 35 -3 35 C-1.515 36.485 -1.515 36.485 0 38 C-0.47342358 27.27317621 -0.47342358 27.27317621 -7 16 C-7 14.68 -7 13.36 -7 12 C-4.03 12 -1.06 12 2 12 C1.071875 10.6078125 1.071875 10.6078125 0.125 9.1875 C-1.25 7.125 -2.625 5.0625 -4 3 C-2.68 2.01 -1.36 1.02 0 0 Z "
          fill="#0C0B0A" transform="translate(688,133)"/>
    <!-- Eye Left -->
    <path d="M0 0 C0.85142578 -0.01611328 1.70285156 -0.03222656 2.58007812 -0.04882812 C14.76643691 -0.05810943 25.55112478 5.38432969 34.53125 13.49609375 C45.75571571 25.80594411 47.9325965 38.65837179 47.38916016 54.58935547 C46.43754089 67.4396718 39.65430957 78.26271858 30.5625 87.0625 C18.75026652 96.76540607 6.12506878 99.15186391 -8.8125 98.3125 C-19.34629999 96.60744047 -30.57698287 90.11711871 -37.12890625 81.6015625 C-38.0712014 80.20289444 -38.94989608 78.76167459 -39.8125 77.3125 C-39.3175 76.3225 -39.3175 76.3225 -38.8125 75.3125 C-36.5025 76.6325 -34.1925 77.9525 -31.8125 79.3125 C-22.90488965 79.3125 -18.77943101 78.05904595 -12.5625 72.1875 C-6.77575676 62.68070754 -6.2863457 54.14250929 -6.8125 43.3125 C-10.91952888 32.6583839 -14.97660468 28.12845347 -25.8125 23.3125 C-31.35768774 23.14446401 -35.60007146 23.17406778 -40.8125 25.3125 C-35.05443912 13.54602777 -24.93443036 6.19968623 -13.0625 1.140625 C-8.66926647 0.0211953 -4.51583833 -0.01686273 0 0 Z "
          fill="#F9F9F5" transform="translate(422.8125,94.6875)"/>
    <!-- Eye Right -->
    <path d="M0 0 C1.6891825 0.74241252 3.35759656 1.53415231 5 2.375 C5.85980469 2.79910156 6.71960938 3.22320312 7.60546875 3.66015625 C18.72250252 9.69800061 26.73736208 20.29419658 30.875 32.1875 C33.94254632 43.85513155 32.24066174 56.4153836 26.8125 67.125 C21.29580807 76.22588998 14.17323465 81.31725512 4.25 84.625 C-7.53133795 87.15614682 -18.54718176 84.92991057 -28.75 78.625 C-29.8225 77.8825 -30.895 77.14 -32 76.375 C-32 75.715 -32 75.055 -32 74.375 C-29.36 73.055 -26.72 71.735 -24 70.375 C-23.18162558 68.96171871 -22.37053781 67.54421654 -21.5625 66.125 C-20.88380859 64.94164062 -20.88380859 64.94164062 -20.19140625 63.734375 C-16.71421118 56.8483887 -16.94361836 47.97588101 -19.125 40.6875 C-22.79309333 31.01223934 -27.50871708 27.12064146 -37 22.375 C-39.1346875 22.6225 -39.1346875 22.6225 -41.3125 22.875 C-43.91813299 23.17710238 -46.37165722 23.375 -49 23.375 C-40.05548871 3.42185942 -22.0360899 -7.6951425 0 0 Z "
          fill="#F9F8F8" transform="translate(602,49.625)"/>
    <!-- Ear Left -->
    <path d="M0 0 C0.495 3.465 0.495 3.465 1 7 C0.34 7 -0.32 7 -1 7 C-1.33 15.25 -1.66 23.5 -2 32 C-3.98 31.34 -5.96 30.68 -8 30 C-11.65991834 29.75999254 -11.65991834 29.75999254 -15.375 29.875 C-17.24285156 29.90207031 -17.24285156 29.90207031 -19.1484375 29.9296875 C-23.53540372 29.80331728 -23.53540372 29.80331728 -32 36 C-32.804375 37.588125 -33.60875 39.17625 -34.4375 40.8125 C-34.88996094 41.70582031 -35.34242188 42.59914063 -35.80859375 43.51953125 C-40.39965534 53.07797094 -38.31750036 64.3239573 -35 74 C-34.34 74.33 -33.68 74.66 -33 75 C-33.33 74.01 -33.66 73.02 -34 72 C-34.08106686 70.44578271 -34.10756898 68.88832973 -34.09765625 67.33203125 C-34.09443359 66.43935547 -34.09121094 65.54667969 -34.08789062 64.62695312 C-34.07951172 63.69818359 -34.07113281 62.76941406 -34.0625 61.8125 C-34.05798828 60.87212891 -34.05347656 59.93175781 -34.04882812 58.96289062 C-34.02633264 54.53128007 -33.92493556 51.78690293 -32.171875 47.72265625 C-31.8325293 46.92867432 -31.49318359 46.13469238 -31.14355469 45.31665039 C-28.75466144 40.47715252 -25.85549752 37.42774876 -21 35 C-11 35 -11 35 -2 39 C-1.97676684 47.85831262 -1.95902916 56.71661466 -1.94818783 65.57495117 C-1.94298293 69.68881308 -1.93592902 73.80265405 -1.92456055 77.91650391 C-1.91364628 81.89114588 -1.90770515 85.86576778 -1.90512276 89.84042358 C-1.90328384 91.35216589 -1.89969304 92.86390717 -1.89426994 94.37564087 C-1.84405959 108.96036289 -1.84405959 108.96036289 -3 116 C-20.58590309 111.37213077 -38.71305945 97.88377635 -48.02734375 82.27880859 C-49.14900647 80.34533749 -50.23796275 78.3975333 -51.3125 76.4375 C-51.65063721 75.82422852 -51.98877441 75.21095703 -52.3371582 74.57910156 C-58.13568483 63.54911982 -58.37838602 51.82683834 -55.03125 39.94140625 C-49.79709117 25.01215776 -39.02589954 13.81885667 -25 6.875 C-17.64192366 3.59707619 -8.19051116 0 0 0 Z "
          fill="#594A3B" transform="translate(326,124)"/>
    <!-- Eye Outline Left Part 1 -->
    <path d="M0 0 C1.02802734 0.00322266 2.05605469 0.00644531 3.11523438 0.00976562 C4.72301758 0.02233398 4.72301758 0.02233398 6.36328125 0.03515625 C7.44673828 0.03966797 8.53019531 0.04417969 9.64648438 0.04882812 C21.73264264 0.10207111 31.18593599 4.66856206 40.67578125 12.09765625 C41.72765625 12.86078125 42.77953125 13.62390625 43.86328125 14.41015625 C55.14045713 25.18612432 60.39675587 39.89278438 61.11328125 55.22265625 C60.8096554 71.33380314 52.97650356 86.39463948 42.046875 97.9140625 C30.57036865 108.48303623 15.13697053 112.66213358 -0.12109375 112.37109375 C-12.87303484 111.78619545 -25.25493647 105.64475089 -34.13671875 96.59765625 C-43.93940441 84.89136375 -49.12150919 69.19411166 -48.734375 54.01171875 C-47.43273911 41.59039337 -44.11174118 30.02805398 -36.32421875 20.09765625 C-35.70675781 19.27007812 -35.08929688 18.4425 -34.453125 17.58984375 C-26.3233892 8.07283193 -12.75586535 -0.07047439 0 0 Z M-25.32421875 19.09765625 C-25.98550781 19.68933594 -26.64679688 20.28101563 -27.328125 20.890625 C-30.94227659 24.30860135 -33.38924269 27.43094928 -35.32421875 32.09765625 C-34.51984375 31.76765625 -33.71546875 31.43765625 -32.88671875 31.09765625 C-24.49780998 28.74287484 -19.49583284 30.46582776 -11.32421875 34.09765625 C-2.71659677 43.93493852 -0.68360465 50.80167946 -1.13476562 63.10449219 C-1.93727538 71.54739117 -5.92817348 76.8022701 -11.32421875 83.09765625 C-17.32421875 86.09765625 -17.32421875 86.09765625 -26.32421875 86.09765625 C-28.96421875 84.77765625 -31.60421875 83.45765625 -34.32421875 82.09765625 C-31.44785902 91.58964336 -23.56088111 96.469779 -15.32421875 101.09765625 C-5.77037091 105.99065496 7.32226157 107.15909411 17.6640625 103.90625 C32.75044294 97.84240388 43.11657183 89.13986062 49.9921875 74.24609375 C54.64084953 61.70928396 54.42828601 46.68425274 49.27734375 34.46875 C43.25182626 21.7857705 33.44755982 13.60273322 20.67578125 8.09765625 C17.33203655 7.28118004 14.24885066 6.97783 10.8125 7 C9.92626953 7.00322266 9.04003906 7.00644531 8.12695312 7.00976562 C7.21494141 7.01814453 6.30292969 7.02652344 5.36328125 7.03515625 C4.43193359 7.03966797 3.50058594 7.04417969 2.54101562 7.04882812 C-8.44084955 7.10514538 -17.18764518 11.80441277 -25.32421875 19.09765625 Z "
          fill="#050404" transform="translate(417.32421875,87.90234375)"/>
    <!-- Eyepatch Outline Left -->
    <path d="M0 0 C1.01764435 0.00638992 1.01764435 0.00638992 2.05584717 0.01290894 C21.58199728 0.18324356 39.06335426 5.25912458 53.53515625 19.12109375 C67.12924273 34.10575697 70.89056142 52.67573257 69.9453125 72.27783203 C69.45631638 77.99786411 67.73095659 83.21022599 65.75 88.5625 C65.31429687 89.80773437 64.87859375 91.05296875 64.4296875 92.3359375 C56.91731888 113.00739758 42.47417871 129.2759609 22.625 138.75 C13.89865288 142.74259997 4.95188069 145.86798188 -4.25 148.5625 C-5.27818848 148.88009277 -5.27818848 148.88009277 -6.32714844 149.20410156 C-16.52791165 152.28532779 -26.48894885 152.96165886 -37.125 153.0625 C-38.33712158 153.08103027 -39.54924316 153.09956055 -40.7980957 153.11865234 C-53.54225013 153.02973356 -65.54044248 149.39840985 -75.21484375 140.8203125 C-87.81086517 127.53523082 -89.76518838 110.76840942 -89.5234375 93.34375 C-88.6565525 67.35436617 -75.14433263 40.09152169 -56.33984375 22.3046875 C-39.64031786 8.38321358 -22.1096443 -0.25028238 0 0 Z M-50.25 24.5625 C-51.15234375 25.38492188 -52.0546875 26.20734375 -52.984375 27.0546875 C-71.26603639 44.47781783 -83.55045429 69.51267777 -84.4296875 94.9453125 C-84.80911167 112.70089027 -81.70729166 125.48234376 -69.25 138.5625 C-60.61649312 146.709886 -48.83642029 148.23537092 -37.4375 148 C-36.29676025 147.98606201 -35.15602051 147.97212402 -33.98071289 147.95776367 C-25.39116481 147.77027762 -17.55072376 146.87032454 -9.25 144.5625 C-7.90116008 144.21828566 -6.55219604 143.87455743 -5.203125 143.53125 C9.32469292 139.6824999 24.02570008 134.16447498 35.75 124.5625 C36.57628906 123.92054688 37.40257812 123.27859375 38.25390625 122.6171875 C52.76934619 110.60593796 60.62626356 92.13993672 64.5 74.0625 C65.78539119 56.06702333 63.51219141 39.22897489 51.375 25.1875 C38.27431343 11.54095149 21.39347733 5.57371525 2.67260742 5.13793945 C-17.73071586 5.05472467 -35.0492099 10.51938597 -50.25 24.5625 Z "
          fill="#0F0B08" transform="translate(431.25,64.4375)"/>
    <!-- Tail Tip -->
    <path d="M0 0 C0.66 0 1.32 0 2 0 C5.33733028 5.70832911 6.5390305 11.80001778 8.0625 18.1875 C13.10754517 38.46427619 20.82347217 57.80411182 29 77 C22 85 22 85 16 88 C3 88 3 88 -3 84 C-8.58851657 56.2655002 -12.78324266 27.70643249 -1 1 C-0.67 0.67 -0.34 0.34 0 0 Z "
          fill="#5D4D3B" transform="translate(20,573)"/>
    <!-- Eyepatch Right Top -->
    <path d="M0 0 C1.20366211 0.00483398 1.20366211 0.00483398 2.43164062 0.00976562 C3.68170898 0.02233398 3.68170898 0.02233398 4.95703125 0.03515625 C5.80201172 0.03966797 6.64699219 0.04417969 7.51757812 0.04882812 C17.77246322 0.10676533 24.4803165 7.3081749 31.76953125 14.09765625 C28.76953125 15.09765625 28.76953125 15.09765625 26.74609375 14.6171875 C13.52314921 12.30924574 2.21132574 14.22096497 -8.98046875 21.72265625 C-17.73534629 28.49176271 -23.13000808 37.20776788 -25.23046875 48.09765625 C-26.94903298 64.695582 -23.25145271 80.94709467 -12.7734375 94.20703125 C-10.65077984 96.57371097 -8.49596572 98.86811955 -6.23046875 101.09765625 C-10.98617031 101.09765625 -13.82639024 96.73885265 -17.09960938 93.49438477 C-29.32085629 81.084888 -37.14304816 64.04416697 -37.54296875 46.47265625 C-37.47329945 44.67931682 -37.36972267 42.88693781 -37.23046875 41.09765625 C-37.17246094 40.25074219 -37.11445312 39.40382812 -37.0546875 38.53125 C-35.6336279 27.04292483 -29.47035136 15.81989284 -20.953125 8.20703125 C-15.14385086 3.70630236 -7.45000149 -0.05283689 0 0 Z "
          fill="#5B4C3D" transform="translate(571.23046875,27.90234375)"/>
    <!-- Nose -->
    <path d="M0 0 C2 2 2 2 2 11 C-2.69410053 21.29091271 -8.0124433 26.61145656 -18 32 C-30.59562205 32.51410702 -43.43012636 32.92740523 -54 25 C-54 19 -54 19 -50 13 C-35.73505038 2.26260842 -17.89156365 -5.96385455 0 0 Z "
          fill="#2B241C" transform="translate(572,151)"/>
    <!-- Ear Right Partial Bottom -->
    <path d="M0 0 C10.53533762 8.61982169 18.4650025 19.30126353 21 33 C21.12084357 35.59673166 21.18989954 38.15370212 21.1875 40.75 C21.18814453 41.46285156 21.18878906 42.17570312 21.18945312 42.91015625 C21.13882433 47.94542014 20.58649873 52.2405038 19 57 C12.02079589 51.689736 7.16151108 44.98532446 2 38 C-2.82889444 31.50266308 -7.62723812 25.06157751 -13 19 C-12.67 17.68 -12.34 16.36 -12 15 C-10 14 -10 14 -1 15 C2.465 16.98 2.465 16.98 6 19 C4.81938674 14.27754698 3.6823316 13.89326054 0 11 C-3.11803399 9.25464401 -3.11803399 9.25464401 -12 10 C-13.32 10.99 -14.64 11.98 -16 13 C-16.66 13 -17.32 13 -18 13 C-18.44730469 12.48050781 -18.89460937 11.96101562 -19.35546875 11.42578125 C-22.78201031 7.47320346 -26.24446679 3.64172918 -30 0 C-30 -0.66 -30 -1.32 -30 -2 C-19.05847533 -6.37660987 -10.40729651 -4.16291861 0 0 Z "
          fill="#5C4D3C" transform="translate(637,37)"/>
    <!-- Eyepatch Right Bottom -->
    <path d="M0 0 C3.34512714 3.25155715 6.37142377 6.58036465 9.25 10.25 C11.51383444 13.22198809 11.51383444 13.22198809 14 16 C14 29.91794241 11.85664277 36.87757508 2.5859375 46.671875 C-4.52585077 53.07463302 -12.75788196 56.82341423 -22 59 C-22.64453125 59.18691406 -23.2890625 59.37382812 -23.953125 59.56640625 C-26.42935807 60.0909518 -28.72110732 60.0957749 -31.25 60.0625 C-32.14203125 60.05347656 -33.0340625 60.04445312 -33.953125 60.03515625 C-36 60 -36 60 -42 56 C-42 55.67 -42 55.34 -42 55 C-41.04480469 54.85304687 -40.08960938 54.70609375 -39.10546875 54.5546875 C-31.26874346 53.19517584 -25.06179436 51.50127475 -18.171875 47.3046875 C-16 46 -16 46 -13 45 C-12.773125 44.484375 -12.54625 43.96875 -12.3125 43.4375 C-11.17723493 41.32915058 -9.97671483 39.54611714 -8.5625 37.625 C-0.36149758 26.17726642 0.50928295 13.63746561 0 0 Z "
          fill="#5A4B3A" transform="translate(640,86)"/>
    <!-- Paw Right Partial Right -->
    <path d="M0 0 C0.22731216 6.93302093 -0.57997892 13.2168636 -2 20 C-4 16 -4 16 -5 5 C-5.66 5 -6.32 5 -7 5 C-7.01981934 5.60884033 -7.03963867 6.21768066 -7.06005859 6.8449707 C-7.82463304 29.17181175 -7.82463304 29.17181175 -10 38 C-11.65 38 -13.3 38 -15 38 C-15.06731323 37.15405273 -15.06731323 37.15405273 -15.13598633 36.29101562 C-15.34957223 33.69287478 -15.58092152 31.09659654 -15.8125 28.5 C-15.88275391 27.613125 -15.95300781 26.72625 -16.02539062 25.8125 C-16.10595703 24.9359375 -16.18652344 24.059375 -16.26953125 23.15625 C-16.33760986 22.36025391 -16.40568848 21.56425781 -16.47583008 20.74414062 C-17.18300001 17.04195617 -18.67657392 13.52913622 -20 10 C-20 18.58 -20 27.16 -20 36 C-28.91991271 31.54004365 -31.8832353 20.92277328 -35 12 C-26.16544656 2.06112738 -12.9181233 -0.77165781 0 0 Z "
          fill="#5A4A38" transform="translate(597,625)"/>
    <!-- Paw Left -->
    <path d="M0 0 C0.33 0 0.66 0 1 0 C1.22588024 8.59599799 0.91958262 16.60182604 -1 25 C-1.33 25 -1.66 25 -2 25 C-2.66 20.71 -3.32 16.42 -4 12 C-4.66 11.67 -5.32 11.34 -6 11 C-6 19.91 -6 28.82 -6 38 C-6.33 38.66 -6.66 39.32 -7 40 C-7.66 40 -8.32 40 -9 40 C-9.20157715 39.33468262 -9.4031543 38.66936523 -9.61083984 37.98388672 C-10.53137627 34.94733263 -11.45317681 31.91116369 -12.375 28.875 C-12.69210937 27.82828125 -13.00921875 26.7815625 -13.3359375 25.703125 C-14.83132687 20.78080167 -16.33256891 15.86755135 -18 11 C-18.66 11 -19.32 11 -20 11 C-19.05292616 20.81966031 -17.61545891 29.73319268 -14 39 C-14.33 39.66 -14.66 40.32 -15 41 C-24.54081363 31.45918637 -29.01275296 22.07575677 -32 9 C-30.79731319 8.34371151 -29.58747446 7.70052495 -28.375 7.0625 C-27.36566406 6.52302734 -27.36566406 6.52302734 -26.3359375 5.97265625 C-20.78381014 3.66081726 -15.02985629 3.8724465 -9.125 3.9375 C-8.34125 3.94201172 -7.5575 3.94652344 -6.75 3.95117188 C-4.83329986 3.96285907 -2.91663952 3.98079092 -1 4 C-0.67 2.68 -0.34 1.36 0 0 Z "
          fill="#5D4D3B" transform="translate(709,600)"/>
    <!-- Ear Right Partial Top -->
    <path d="M0 0 C2.50852308 1.13643697 4.45091505 2.43339802 6.578125 4.16796875 C6.248125 5.81796875 5.918125 7.46796875 5.578125 9.16796875 C6.898125 9.82796875 8.218125 10.48796875 9.578125 11.16796875 C9.248125 12.81796875 8.918125 14.46796875 8.578125 16.16796875 C5.938125 14.51796875 3.298125 12.86796875 0.578125 11.16796875 C-8.921875 10.16796875 -8.921875 10.16796875 -13.421875 14.16796875 C-14.081875 14.16796875 -14.741875 14.16796875 -15.421875 14.16796875 C-15.86917969 13.64847656 -16.31648437 13.12898437 -16.77734375 12.59375 C-20.20388531 8.64117221 -23.66634179 4.80969793 -27.421875 1.16796875 C-27.421875 0.50796875 -27.421875 -0.15203125 -27.421875 -0.83203125 C-17.91439354 -4.63502384 -9.20767323 -3.51345426 0 0 Z "
          fill="#5A4938" transform="translate(634.421875,35.83203125)"/>
    <!-- Ear Right Outline -->
    <path d="M0 0 C1.98 0.99 3.96 1.98 6 3 C6 4.98 6 6.96 6 9 C5.46632813 8.855625 4.93265625 8.71125 4.3828125 8.5625 C-1.50228763 7.09631589 -6.95009776 6.77265503 -13 7 C-19.60308105 11.40205403 -23.08600584 15.27566644 -25 23 C-25.23540234 26.96223935 -25.18851695 30.90763361 -25.125 34.875 C-25.11146484 36.47988281 -25.11146484 36.47988281 -25.09765625 38.1171875 C-25.07419342 40.74502439 -25.04136459 43.37239406 -25 46 C-25.99 45.67 -26.98 45.34 -28 45 C-32.2029529 32.74138736 -32.31703029 21.76572582 -27 10 C-19.75427116 -0.06351228 -12.22406644 0 0 0 Z "
          fill="#0A0705" transform="translate(318,153)"/>
    <!-- Paw Right Partial Left -->
    <path d="M0 0 C0.66 0.33 1.32 0.66 2 1 C1.67 1.99 1.34 2.98 1 4 C0.90625322 5.60196702 0.87007005 7.20779987 0.875 8.8125 C0.87242187 9.64394531 0.86984375 10.47539063 0.8671875 11.33203125 C0.9479881 14.05045696 0.9479881 14.05045696 1.50390625 16.89453125 C2.04372364 20.27370308 2.09739432 23.4553569 2.0625 26.875 C2.05347656 28.02742187 2.04445313 29.17984375 2.03515625 30.3671875 C2.02355469 31.23601563 2.01195312 32.10484375 2 33 C-6.91991271 28.54004365 -9.8832353 17.92277328 -13 9 C-9.15080717 4.66965806 -5.27710354 2.3439244 0 0 Z "
          fill="#5E4D3A" transform="translate(575,628)"/>
</svg>
