<svg version="1.1" xmlns="http://www.w3.org/2000/svg" style="display: block;" viewBox="0 0 1250 1500" width="1250" height="1500" preserveAspectRatio="none">
<defs>
	<linearGradient id="Gradient1" gradientUnits="userSpaceOnUse" x1="1337.74" y1="287.07" x2="1380.96" y2="351.416">
		<stop class="stop0" offset="0" stop-opacity="1" stop-color="rgb(54,53,54)"/>
		<stop class="stop1" offset="1" stop-opacity="1" stop-color="rgb(67,78,66)"/>
	</linearGradient>
</defs>
<path transform="translate(-350,0)" fill="rgb(197,177,143)" d="M 810.447 63.1404 C 811.566 21.3523 865.433 1.8262 893.807 31.8472 C 902.671 29.1602 913.9 27.9956 923.137 26.9897 C 966.678 22.2486 1015.11 30.5837 1053.83 51.6406 C 1111.36 82.933 1144.28 123.049 1179.31 176.587 C 1219.87 180.962 1394.41 198.52 1328.82 272.301 C 1325.35 276.202 1321.29 280.449 1317.55 284.132 C 1344.52 283.079 1355.21 281.434 1375.94 300.599 C 1376.76 301.352 1377.56 302.112 1378.37 302.879 C 1395.1 301.831 1420.35 305.864 1435.34 299.87 C 1446.78 295.295 1506.66 294.262 1520.41 295.606 C 1528.06 296.354 1535.28 298.114 1542.31 301.264 C 1563.22 310.63 1578.22 329.223 1586.16 350.373 C 1596.84 378.789 1596.55 411.119 1583.78 438.83 C 1575 457.883 1560.54 473.412 1540.46 480.512 C 1517.5 488.634 1463.97 481.798 1440.3 476.711 C 1427.32 473.919 1415.72 468.859 1402.27 467.864 C 1394.68 479.729 1389.65 487.806 1377.85 496.288 C 1377.32 497.491 1376.02 500.662 1375.36 501.567 C 1377.98 522.602 1373.31 548.239 1376.51 569.986 C 1377.19 574.589 1376.33 580.144 1377.11 585.022 C 1377.39 598.361 1373.88 681.068 1368.96 688.242 C 1364.72 689.661 1362.5 688.839 1360.88 692.101 C 1357.94 698.018 1355.12 711.128 1348.2 713.399 C 1341.04 715.745 1342.31 712.638 1337.26 719.598 C 1311.22 752.495 1283.8 784.276 1255.08 814.856 C 1255.53 818.709 1256.28 821.969 1255.19 825.62 C 1252.33 829.032 1245.22 827.201 1246.29 830.426 C 1253.37 851.726 1261.14 865.641 1259.34 889.345 C 1257.39 892.009 1255.71 894.361 1253.55 896.879 C 1265.31 942.444 1276.41 1015.21 1279.27 1062.93 C 1280.06 1077.53 1280.49 1092.16 1280.57 1106.78 C 1280.6 1111.9 1280.12 1132.05 1281.35 1135.68 C 1294.83 1175.39 1322.31 1208.45 1326.35 1251.92 C 1328.77 1277.87 1325.62 1295.18 1312.69 1317.98 C 1297.56 1344.66 1273.75 1362.13 1254.66 1384.92 C 1268.99 1390.85 1316.26 1409.99 1305.52 1426.4 C 1292.42 1446.4 1217.58 1434.24 1199.11 1423.61 C 1188.71 1417.63 1186.16 1412.92 1183.14 1404.57 C 1185.83 1387.88 1193.69 1383.07 1195.25 1365.46 C 1190.36 1352.4 1181.35 1345.33 1169.37 1338.17 C 1143.56 1345.72 1108.29 1351.05 1081.18 1355.81 C 1063.52 1387.26 1035.42 1405.59 1004.56 1421.92 C 1016.89 1429.24 1029.77 1437.63 1033.77 1452.32 C 1037.73 1466.85 1027.89 1474.72 1014.74 1476.98 C 988.889 1481.43 961.66 1470.74 939.997 1457.36 C 933.043 1452.99 923.454 1444 922.476 1435.95 C 919.945 1415.13 944.51 1399.62 936.758 1376.01 C 929.496 1353.89 913.198 1334.52 903.868 1312.46 C 777.22 1351.13 663.14 1384.41 538.288 1317.13 C 515.52 1304.86 481.275 1281.49 465.561 1261.2 C 462.008 1257.64 458.113 1253.19 454.654 1249.44 C 443.485 1236.82 433.35 1223.32 424.349 1209.07 C 390.049 1154.28 363.121 1068.07 377.966 1002.87 C 379.017 994.47 388.177 972.952 399.705 977.732 C 412.266 984.87 416.732 1018.79 420.721 1031.9 C 449.975 1128.02 510.631 1216.83 610.98 1247.38 C 694.3 1272.76 782.429 1261.98 859.96 1222.17 C 865.043 1218.87 886.064 1205.94 887.604 1202.33 C 893.663 1188.14 898.999 1157 903.005 1141.24 C 910.938 1108.02 919.946 1076.2 927.322 1042.65 C 943.787 968.942 949.176 897.575 946.343 821.814 C 944.104 763.339 940.511 697.316 907.043 647.29 C 905.751 645.359 873.73 629.465 868.927 626.791 C 859.131 621.339 847.937 613.873 838.264 608.047 C 822.668 607.855 827.39 598.393 820.319 594.684 C 806.955 587.675 808.907 593.186 803.766 574.912 C 801.703 568.329 804.255 564.243 801.982 558.122 C 798.647 555.991 798.392 557.151 794.789 556.896 C 784.541 556.17 788.645 539.592 789.648 532.764 C 785.788 529.123 769.056 523.7 756.945 513.294 C 728.82 519.352 621.361 541.727 624.217 487.313 C 625.783 457.48 664.093 393.182 685.16 372.758 C 687.917 368.315 700.652 354.15 704.75 349.418 C 694.713 310.411 693.915 238.618 707.215 200.648 C 707.969 194.898 712.066 182.959 714.15 177.338 C 728.575 138.324 753.584 104.1 786.374 78.5065 C 793.152 73.3109 802.811 66.7858 810.447 63.1404 z M 1207.74 661.871 C 1222.09 653.662 1265.7 626.336 1272.24 612.239 C 1285.75 575.865 1293.05 543.004 1301.38 505.393 C 1292.32 503.774 1284.32 502.898 1275.18 501.908 C 1263.54 523.386 1227.95 561.07 1211.99 582.823 C 1211.73 597.475 1210.48 635.621 1208.17 650.53 C 1208.28 652.868 1207.85 659.259 1207.74 661.871 z"/>
<path transform="translate(-350,0)" fill="rgb(19,20,20)" fill-opacity="0.00784314" d="M 1211.99 582.823 C 1227.95 561.07 1263.54 523.386 1275.18 501.908 C 1284.32 502.898 1292.32 503.774 1301.38 505.393 C 1293.05 543.004 1285.75 575.865 1272.24 612.239 C 1265.7 626.336 1222.09 653.662 1207.74 661.871 C 1207.85 659.259 1208.28 652.868 1208.17 650.53 C 1210.48 635.621 1211.73 597.475 1211.99 582.823 z"/>
<path transform="translate(-350,0)" fill="rgb(19,19,19)" d="M 810.447 63.1404 C 811.566 21.3523 865.433 1.8262 893.807 31.8472 C 902.671 29.1602 913.9 27.9956 923.137 26.9897 C 966.678 22.2486 1015.11 30.5837 1053.83 51.6406 C 1111.36 82.933 1144.28 123.049 1179.31 176.587 C 1219.87 180.962 1394.41 198.52 1328.82 272.301 C 1325.35 276.202 1321.29 280.449 1317.55 284.132 C 1344.52 283.079 1355.21 281.434 1375.94 300.599 C 1376.76 301.352 1377.56 302.112 1378.37 302.879 C 1395.1 301.831 1420.35 305.864 1435.34 299.87 C 1446.78 295.295 1506.66 294.262 1520.41 295.606 C 1528.06 296.354 1535.28 298.114 1542.31 301.264 C 1563.22 310.63 1578.22 329.223 1586.16 350.373 C 1596.84 378.789 1596.55 411.119 1583.78 438.83 C 1575 457.883 1560.54 473.412 1540.46 480.512 C 1517.5 488.634 1463.97 481.798 1440.3 476.711 C 1427.32 473.919 1415.72 468.859 1402.27 467.864 C 1394.68 479.729 1389.65 487.806 1377.85 496.288 C 1377.32 497.491 1376.02 500.662 1375.36 501.567 C 1374.94 501.379 1369.29 498.792 1369.46 498.762 C 1357.66 500.896 1346.42 506.943 1334.22 507.469 C 1330.62 507.624 1327.17 507.775 1323.54 508.05 L 1311.01 506.717 C 1301.8 543.741 1295.85 575.282 1282.86 611.809 C 1278.1 611.895 1278.75 610.599 1274.72 609.912 L 1272.24 612.239 C 1285.75 575.865 1293.05 543.004 1301.38 505.393 C 1292.32 503.774 1284.32 502.898 1275.18 501.908 C 1263.54 523.386 1227.95 561.07 1211.99 582.823 C 1211.73 597.475 1210.48 635.621 1208.17 650.53 C 1201.69 638.502 1208.13 589.306 1206.9 573.327 C 1205.65 557.033 1206.27 536.923 1205.01 520.861 C 1213.32 481.2 1204.38 476.94 1195.76 439.955 L 1193.85 438.711 C 1170.06 447.057 1153.54 442.543 1133.31 428.568 L 1132.29 428.869 L 1131.93 436.491 C 1134.7 448.52 1150.99 496.723 1150.73 502.192 C 1148.81 543.323 1130.85 613.637 1112.6 650.15 C 1107.52 645.762 1109.37 640.502 1109.32 633.843 C 1121.76 600.497 1140.97 534.888 1143.18 500.131 L 1133.75 494.863 C 1124.87 504.513 1113.99 512.105 1101.87 517.106 C 1078.14 526.802 1046.45 525.795 1022.9 516.009 C 1025 514.797 1027.38 512.709 1029.32 511.151 C 1060.96 522.049 1104.58 519.585 1125.85 490.552 C 1128.75 486.602 1130.54 481.884 1130.61 476.984 C 1128.76 473.39 1125.43 474.266 1121.1 473.883 C 1111.26 473.014 1102.56 472.351 1093.2 468.776 L 1092.01 468.318 C 1085.56 466.04 1073.06 459.101 1068.52 453.4 C 1066 450.239 1066.67 449.468 1067.11 446.009 C 1051.9 445.94 1043.96 442.663 1032.25 433.472 C 1031.01 435.589 1029.74 437.692 1028.45 439.782 C 1007.71 473.24 978.121 486.68 941.176 495.482 C 897.068 505.991 838.597 501.025 827.699 447.076 C 819.234 405.168 833.711 374.064 855.295 339.957 C 841.387 345.88 824.082 356.361 812.016 360.937 C 798.358 365.86 744.315 401.003 731.112 410.398 C 721.076 413.31 719.38 447.849 722.929 456.863 C 734.99 487.501 755.427 513.206 787.666 523.744 C 788.502 524.017 790.894 530.968 789.648 532.764 C 785.788 529.123 769.056 523.7 756.945 513.294 C 728.82 519.352 621.361 541.727 624.217 487.313 C 625.783 457.48 664.093 393.182 685.16 372.758 C 687.917 368.315 700.652 354.15 704.75 349.418 C 694.713 310.411 693.915 238.618 707.215 200.648 C 707.969 194.898 712.066 182.959 714.15 177.338 C 728.575 138.324 753.584 104.1 786.374 78.5065 C 793.152 73.3109 802.811 66.7858 810.447 63.1404 z"/>
<path transform="translate(-350,0)" fill="rgb(197,177,143)" d="M 881.825 44.1412 C 948.296 24.8467 1015.98 37.6804 1073.08 75.2132 C 1070.33 77.49 1070.24 77.6561 1066.82 78.0171 C 1055.29 87.6591 1064.46 96.9951 1075.97 99.3009 C 1082.89 99.4624 1082.85 97.4088 1086.13 91.6598 C 1090.38 90.1666 1097.78 97.5609 1099.25 100.758 C 1094.27 103.161 1095.67 101.65 1093.65 106.199 C 1062.46 121.405 1027.17 146.976 1007.5 175.734 C 924.432 168.149 777.453 184.707 710.441 236.892 C 709.949 228.561 716.582 204.055 718.958 194.631 C 734.24 148.52 749.348 125.629 784.683 92.2423 C 795.03 84.6444 799.779 80.5907 811.156 74.5319 L 814.346 73.327 C 817.311 73.1146 817.315 73.2804 820.001 74.2618 C 830.31 60.3868 854.841 51.4673 871.632 48.0777 C 875.082 48.0978 877.072 48.5314 879.715 46.5684 L 879.827 44.858 L 881.825 44.1412 z"/>
<path transform="translate(-350,0)" fill="rgb(23,22,23)" d="M 871.632 48.0777 C 875.082 48.0978 877.072 48.5314 879.715 46.5684 L 879.827 44.858 L 881.825 44.1412 C 891.066 49.2296 903.196 52.2623 912.924 57.075 C 942.802 71.8556 969.795 95.4897 987.591 123.706 L 984.584 124.111 C 981.561 119.501 980.57 118.051 976.751 114.078 C 957.842 86.5145 910.473 56.3883 877.613 49.7152 C 876.747 49.2073 872.858 48.3743 871.632 48.0777 z"/>
<path transform="translate(-350,0)" fill="rgb(38,34,25)" d="M 814.346 73.327 C 817.311 73.1146 817.315 73.2804 820.001 74.2618 C 797.897 107.184 785.208 141.3 784.693 181.306 C 784.636 185.695 785.803 193.129 783.239 196.629 L 782.33 195.368 C 778.861 145.549 787.231 115.308 814.346 73.327 z"/>
<path transform="translate(-350,0)" fill="rgb(89,75,59)" d="M 987.591 123.706 C 992.838 130.387 996.897 138.883 1000.53 146.561 C 995.347 141.661 988.696 130.496 984.584 124.111 L 987.591 123.706 z"/>
<path transform="translate(-350,0)" fill="rgb(38,34,25)" d="M 815.473 148.522 C 832.203 147.682 833.168 160.821 822.114 169.461 C 808.693 170.911 804.269 154.58 815.473 148.522 z"/>
<path transform="translate(-350,0)" fill="rgb(38,34,25)" d="M 750.819 172.137 C 765.787 175.401 764.131 187.551 753.42 195.091 C 740.967 190.896 739.181 177.19 750.819 172.137 z"/>
<path transform="translate(-350,0)" fill="rgb(115,105,70)" d="M 750.074 175.531 C 752.133 175.499 752.286 175.673 754.35 176.097 C 758.66 180.692 757.245 184.447 753.277 188.743 C 750.313 187.784 749.464 186.294 747.713 183.88 C 747.253 178.779 746.98 180.841 750.074 175.531 z"/>
<path transform="translate(-350,0)" fill="rgb(197,177,143)" d="M 1170.68 177.752 C 1177.58 180.436 1179.34 180.18 1183.35 186.059 C 1210.9 189.29 1343.29 205.967 1332.88 247.009 C 1332.34 247.03 1331.8 247.051 1331.26 247.072 C 1330.21 244.341 1329.88 242.429 1327.5 240.831 C 1323.99 236.708 1322.1 235.517 1317.74 232.332 C 1245.19 197.746 1036.39 258.881 958.385 286.47 C 893.116 309.265 830.368 338.721 771.133 374.372 C 755.997 383.846 741.085 393.673 726.409 403.845 C 721.593 407.195 711.367 415.062 706.988 417.743 C 682.54 437.659 657.853 456.924 643.748 485.807 C 640.572 491.748 641.865 496.24 638.546 500.631 L 637.173 499.831 C 631.583 481.368 638.687 472.099 643.348 455.552 L 643.588 454.677 C 656.921 423.978 672.554 407.325 689.499 380.871 C 695.448 374.039 704.946 359.679 711.286 353.96 C 728.766 338.194 754.828 323.424 775.036 310.814 C 771.657 310.328 770.686 311.616 766.459 310.763 L 764.939 308.43 C 772.398 302.632 795.077 290.469 803.866 285.875 C 869.984 251.308 949.82 219.664 1022.57 202.51 L 1024.39 202.468 C 1032.09 197.285 1034.86 201.246 1038.98 198.335 C 1045.61 196.856 1066.67 192.502 1071.96 189.949 L 1071.98 188.14 L 1071.61 186.868 C 1086.66 190.248 1111.27 184.25 1127.32 182.291 C 1136.33 181.192 1164.25 180.282 1170.68 177.752 z"/>
<path transform="translate(-350,0)" fill="rgb(23,22,23)" d="M 1170.68 177.752 C 1177.58 180.436 1179.34 180.18 1183.35 186.059 C 1083.63 188.256 947.836 229.674 856.746 270.044 C 840.057 277.371 823.635 285.289 807.509 293.783 C 799.913 297.805 782.197 307.978 775.036 310.814 C 771.657 310.328 770.686 311.616 766.459 310.763 L 764.939 308.43 C 772.398 302.632 795.077 290.469 803.866 285.875 C 869.984 251.308 949.82 219.664 1022.57 202.51 L 1024.39 202.468 C 1032.09 197.285 1034.86 201.246 1038.98 198.335 C 1045.61 196.856 1066.67 192.502 1071.96 189.949 L 1071.98 188.14 L 1071.61 186.868 C 1086.66 190.248 1111.27 184.25 1127.32 182.291 C 1136.33 181.192 1164.25 180.282 1170.68 177.752 z"/>
<path transform="translate(-350,0)" fill="rgb(151,138,98)" d="M 706.775 276.158 C 752.861 242.181 838.296 216.887 894.074 207.466 C 908.17 205.089 922.348 203.225 936.579 201.879 C 949.268 200.733 1015.31 197.343 1022.57 202.51 C 949.82 219.664 869.984 251.308 803.866 285.875 C 795.077 290.469 772.398 302.632 764.939 308.43 C 747.915 317.978 727.2 333.919 711.431 345.561 C 708.53 322.537 706.975 299.363 706.775 276.158 z"/>
<path transform="translate(-350,0)" fill="rgb(151,138,98)" d="M 711.986 239.41 C 716.965 236.724 721.966 233.947 727.033 231.348 C 820.913 183.217 935.55 172.698 1039.37 184.136 C 1050.48 185.36 1060.72 187.536 1071.98 188.14 L 1071.96 189.949 C 1066.67 192.502 1045.61 196.856 1038.98 198.335 C 1034.86 201.246 1032.09 197.285 1024.39 202.468 L 1022.57 202.51 C 1015.31 197.343 949.268 200.733 936.579 201.879 C 922.348 203.225 908.17 205.089 894.074 207.466 C 838.296 216.887 752.861 242.181 706.775 276.158 C 706.513 271.81 705.677 261.477 707.611 258.286 C 707.774 251.757 706.756 243.863 711.986 239.41 z"/>
<path transform="translate(-350,0)" fill="rgb(38,34,25)" d="M 707.459 273.515 C 761.349 229.156 862.95 203.857 931.425 197.541 C 955.745 195.298 977.299 193.974 1001.78 195.899 C 1013.45 196.818 1025.87 198.736 1037.5 198.389 L 1038.98 198.335 C 1034.86 201.246 1032.09 197.285 1024.39 202.468 L 1022.57 202.51 C 1015.31 197.343 949.268 200.733 936.579 201.879 C 922.348 203.225 908.17 205.089 894.074 207.466 C 838.296 216.887 752.861 242.181 706.775 276.158 C 706.513 271.81 705.677 261.477 707.611 258.286 L 707.459 273.515 z"/>
<path transform="translate(-350,0)" fill="rgb(115,105,70)" d="M 643.748 485.807 C 657.853 456.924 682.54 437.659 706.988 417.743 L 707.519 422.228 C 712.68 424.131 711.058 421.132 715.257 425.013 C 717.768 432.179 716.789 445.417 716.03 453.295 C 719.517 470.1 735.467 494.227 748.119 505.735 C 725.392 510.108 662.032 519.656 642.389 506.718 C 637.828 503.772 634.688 499.071 633.715 493.73 C 631.773 483.635 637.633 462.86 643.588 454.677 L 643.348 455.552 C 638.687 472.099 631.583 481.368 637.173 499.831 L 638.546 500.631 C 641.865 496.24 640.572 491.748 643.748 485.807 z"/>
<path transform="translate(-350,0)" fill="rgb(23,22,23)" d="M 643.748 485.807 C 657.853 456.924 682.54 437.659 706.988 417.743 L 707.519 422.228 C 712.68 424.131 711.058 421.132 715.257 425.013 C 717.768 432.179 716.789 445.417 716.03 453.295 C 713.994 445.831 714.442 432.663 714.424 424.359 C 693.897 436.91 669.937 462.092 653.466 479.903 C 650.035 483.613 647.239 491.66 644.069 494.143 C 642.72 491.505 643.484 489.183 643.748 485.807 z"/>
<path transform="translate(-350,0)" fill="rgb(115,105,70)" d="M 1171.1 241.291 C 1216.16 229.916 1261.98 228.5 1307.91 233.882 C 1312.26 234.054 1314.07 234.564 1317.74 232.332 C 1322.1 235.517 1323.99 236.708 1327.5 240.831 C 1329.88 242.429 1330.21 244.341 1331.26 247.072 C 1331.8 247.051 1332.34 247.03 1332.88 247.009 C 1330.66 259.554 1309.53 278.382 1299.18 285.806 C 1287.96 285.784 1278.23 285.802 1267.06 286.572 C 1248.53 252.493 1226.04 246.584 1190.23 255.443 C 1183.34 249.84 1178.7 245.958 1171.1 241.291 z"/>
<path transform="translate(-350,0)" fill="rgb(38,34,25)" d="M 1317.74 232.332 C 1322.1 235.517 1323.99 236.708 1327.5 240.831 C 1325.08 241.435 1313.57 235.442 1307.91 233.882 C 1312.26 234.054 1314.07 234.564 1317.74 232.332 z"/>
<path transform="translate(-350,0)" fill="rgb(151,138,98)" d="M 1128.65 124.155 C 1138.56 134.686 1145.74 143.743 1154.12 155.453 C 1158.28 161.271 1166.12 172.979 1170.68 177.752 C 1164.25 180.282 1136.33 181.192 1127.32 182.291 C 1111.27 184.25 1086.66 190.248 1071.61 186.868 C 1066.67 184.43 1050.03 181.449 1043.54 180.118 C 1046.35 177.978 1049.27 175.675 1051.91 173.336 C 1074.59 153.282 1100.56 135.577 1128.65 124.155 z"/>
<path transform="translate(-350,0)" fill="rgb(89,75,59)" d="M 1175.56 358.134 C 1179.1 361.312 1181.57 363.003 1182.51 367.601 L 1184.13 367.014 L 1184.67 364.592 L 1185.47 367.692 L 1187.32 368.3 L 1185.56 369.459 L 1185.53 370.868 C 1195.32 378.91 1192.99 425.135 1195.76 439.955 L 1193.85 438.711 C 1170.06 447.057 1153.54 442.543 1133.31 428.568 L 1132.29 428.869 L 1131.93 436.491 C 1131.61 435.421 1131.26 434.301 1131.16 433.188 C 1128.88 406.076 1134.89 391.402 1149.92 370.565 C 1147.97 377.714 1141 405.401 1146.26 410.334 C 1152.8 403.453 1146.78 369.239 1175.56 358.134 z"/>
<path transform="translate(-350,0)" fill="rgb(19,20,20)" d="M 1182.51 367.601 L 1184.13 367.014 L 1184.67 364.592 L 1185.47 367.692 L 1187.32 368.3 L 1185.56 369.459 L 1185.53 370.868 C 1182.36 378.877 1178.38 384.533 1175.41 394.168 C 1173.47 400.454 1171.68 414.92 1169.48 418.874 L 1168.33 417.977 C 1165.15 403.642 1171.84 378.564 1182.51 367.601 z"/>
<path transform="translate(-350,0)" fill="rgb(23,22,23)" d="M 707.215 200.648 L 708.821 200.481 L 710.71 195.942 C 711.011 198.378 711.018 202.274 712.337 203.788 C 714.132 200.5 715.698 196.484 718.958 194.631 C 716.582 204.055 709.949 228.561 710.441 236.892 L 711.986 239.41 C 706.756 243.863 707.774 251.757 707.611 258.286 C 705.677 261.477 706.513 271.81 706.775 276.158 C 706.975 299.363 708.53 322.537 711.431 345.561 C 727.2 333.919 747.915 317.978 764.939 308.43 L 766.459 310.763 C 770.686 311.616 771.657 310.328 775.036 310.814 C 754.828 323.424 728.766 338.194 711.286 353.96 C 704.946 359.679 695.448 374.039 689.499 380.871 C 689.091 376.555 690.51 374.039 692.105 369.972 L 690.942 369.496 C 688.564 371.128 687.783 371.536 685.16 372.758 C 687.917 368.315 700.652 354.15 704.75 349.418 C 694.713 310.411 693.915 238.618 707.215 200.648 z"/>
<path transform="translate(-350,0)" fill="rgb(38,34,25)" d="M 1067.11 446.009 C 1070.54 443.869 1080.87 441.593 1084.09 442.521 C 1097.49 446.384 1097.93 456.613 1111.43 463.273 L 1111.54 464.85 C 1105.04 468.13 1096.86 462.939 1092.01 468.318 C 1085.56 466.04 1073.06 459.101 1068.52 453.4 C 1066 450.239 1066.67 449.468 1067.11 446.009 z"/>
<path transform="translate(-350,0)" fill="rgb(38,34,25)" d="M 1066.82 78.0171 C 1078.24 79.855 1087.88 91.6624 1075.97 99.3009 C 1064.46 96.9951 1055.29 87.6591 1066.82 78.0171 z"/>
<path transform="translate(-350,0)" fill="rgb(115,105,70)" d="M 1067.25 81.4089 C 1075.39 84.0872 1080.07 87.4968 1075.07 95.8545 C 1070.7 93.8246 1067.17 91.7887 1065.04 87.4418 C 1064.86 83.5819 1064.58 85.0759 1067.25 81.4089 z"/>
<path transform="translate(-350,0)" fill="rgb(151,138,98)" d="M 1073.08 75.2132 C 1085.14 82.3007 1096.56 94.1656 1107.33 101.272 C 1102.76 102.885 1098.2 104.527 1093.65 106.199 C 1095.67 101.65 1094.27 103.161 1099.25 100.758 C 1097.78 97.5609 1090.38 90.1666 1086.13 91.6598 C 1082.85 97.4088 1082.89 99.4624 1075.97 99.3009 C 1087.88 91.6624 1078.24 79.855 1066.82 78.0171 C 1070.24 77.6561 1070.33 77.49 1073.08 75.2132 z"/>
<path transform="translate(-350,0)" fill="rgb(23,22,23)" d="M 784.683 92.2423 L 779.942 89.9455 C 780.103 84.8274 791.372 80.258 795.402 78.0688 C 801.692 74.6527 804.187 74.3758 811.156 74.5319 C 799.779 80.5907 795.03 84.6444 784.683 92.2423 z"/>
<path transform="translate(-350,0)" fill="rgb(89,75,59)" d="M 962.522 296.187 C 967.652 295.945 974.72 297.56 979.67 299.074 C 1010.43 308.479 1022.69 323.32 1037.59 349.687 C 1012.17 374.281 1012.64 398.956 1027.76 429.014 C 1006.22 471.615 962.439 487.981 917.734 492.498 C 890.837 494.274 855.636 492.279 841.389 465.031 C 822.255 428.437 833.717 388.592 854.056 355.429 C 868.625 331.676 878.61 326.709 904.358 317.099 C 924.095 309.263 941.688 300.902 962.522 296.187 z"/>
<path transform="translate(-350,0)" fill="rgb(19,20,20)" d="M 927.675 323.069 C 969.239 316.665 1008.19 344.966 1014.95 386.475 C 1021.7 427.984 993.731 467.177 952.281 474.28 C 910.333 481.47 870.568 453.088 863.732 411.082 C 856.897 369.075 885.613 329.55 927.675 323.069 z"/>
<path transform="translate(-350,0)" fill="rgb(254,254,251)" d="M 901.187 456.215 C 884.431 440.627 875.686 426.704 874.902 402.912 C 874.187 383.419 881.439 364.475 894.988 350.442 C 919.885 324.331 957.943 323.12 983.299 348.714 C 989.796 355.271 993.945 361.606 999.025 369.204 C 982.678 357.394 963.989 355.152 951.786 373.127 C 929.308 406.237 962.051 455.242 1000.38 423.187 C 990.761 441.015 982.817 452.004 964.338 461.914 C 963.266 464.052 961.015 465.616 959.133 467.195 L 959.725 467.28 C 945.634 478.392 904.288 471.361 901.187 456.215 z"/>
<path transform="translate(-350,0)" fill="rgb(23,22,23)" d="M 901.187 456.215 C 923.717 469.459 939.435 471.076 964.338 461.914 C 963.266 464.052 961.015 465.616 959.133 467.195 L 959.725 467.28 C 945.634 478.392 904.288 471.361 901.187 456.215 z"/>
<path transform="translate(-350,0)" fill="rgb(60,62,61)" d="M 1507.1 306.242 C 1591.4 295.855 1610.07 428.872 1548.32 467.936 C 1541.77 472.078 1535.72 473.576 1528.28 475.535 C 1517.3 477.883 1498.35 474.755 1488.56 468.688 C 1470.94 457.774 1457.9 435.239 1452.95 415.712 C 1446.56 389.651 1450.73 362.12 1464.55 339.122 C 1475.27 321.218 1487.11 311.351 1507.1 306.242 z"/>
<path transform="translate(-350,0)" fill="rgb(19,20,20)" d="M 1511.28 316.428 C 1521.9 316.62 1530.36 316.94 1540.05 321.933 C 1579.04 342.006 1587.57 393.226 1569.49 430.38 C 1560.54 448.793 1547.57 458.104 1528.88 464.399 C 1446.93 477.143 1436.83 331.261 1511.28 316.428 z"/>
<path transform="translate(-350,0)" fill="rgb(92,117,90)" d="M 1508.77 326.302 C 1560.29 337.505 1563.44 434.457 1507.39 454.082 C 1502.15 454.504 1496.82 452.805 1492.7 449.611 C 1462.41 426.121 1459.96 374.43 1481.06 344.277 C 1488.1 334.205 1497.11 328.338 1508.77 326.302 z"/>
<path transform="translate(-350,0)" fill="rgb(149,166,151)" d="M 1509.4 341.147 C 1533.03 341.852 1545.94 377.802 1529.89 390.292 C 1519.48 387.879 1518.91 372.759 1513.67 364.465 C 1509.29 357.543 1502.23 355.776 1503.36 347.25 C 1505.15 343.633 1505.88 343.481 1509.4 341.147 z"/>
<path transform="translate(-350,0)" fill="rgb(60,62,61)" d="M 1336.22 329.335 C 1348.45 328.227 1360.67 331.684 1370.51 339.039 C 1386.49 350.877 1401.83 374.078 1403.63 393.747 C 1406.26 422.493 1406.3 450.543 1387.17 474.029 C 1371.84 492.848 1363.45 497.679 1340.44 500.738 C 1327.89 499.432 1316.96 498.054 1306.33 490.263 C 1250.86 449.608 1261.44 341.081 1336.22 329.335 z"/>
<path transform="translate(-350,0)" fill="rgb(19,20,20)" d="M 1335.63 340.364 C 1368.65 339.278 1388.21 362.21 1396.08 392.128 C 1402.25 415.227 1398.89 439.835 1386.76 460.439 C 1377.15 476.608 1365.8 483.319 1348.13 487.828 C 1347.51 487.916 1346.88 488.004 1346.26 488.091 C 1331.99 489.845 1317.61 485.737 1306.42 476.704 C 1265.58 443.425 1277.16 345.721 1335.63 340.364 z"/>
<path transform="translate(-350,0)" fill="rgb(92,117,90)" d="M 1324.9 350.394 C 1368.96 341.567 1394.26 454.869 1330.27 477.44 C 1290.8 485.21 1262.7 377.618 1324.9 350.394 z"/>
<path transform="translate(-350,0)" fill="rgb(149,166,151)" d="M 1330.72 364.867 C 1340.02 365.33 1345.56 368.814 1350.22 376.777 C 1356.9 388.178 1364.31 407.426 1350.62 416.243 C 1339.49 412.617 1343.51 401.989 1337.86 392.952 C 1331.62 382.961 1315.18 373.997 1330.72 364.867 z"/>
<path transform="translate(-350,0)" fill="rgb(60,62,61)" d="M 1262.94 329.277 C 1271.98 327.813 1296.55 328.923 1306.94 329.197 C 1256.95 359.456 1250 434.99 1283.69 479.08 C 1287.72 484.36 1292.2 488.207 1295.88 493.129 L 1295.46 494.642 L 1292.8 494.693 C 1255.24 490.084 1242.61 493.035 1225.43 454.267 C 1207.44 413.677 1219.49 347.728 1262.94 329.277 z"/>
<path transform="translate(-350,0)" fill="rgb(92,117,90)" d="M 1127 457.049 C 1120.58 456.349 1111.15 455.83 1106.63 451.118 C 1078.66 421.99 1085.98 352.513 1126.17 336.915 C 1129.29 335.703 1140.38 335.548 1144 335.39 C 1176.74 333.959 1209.63 333.893 1242.34 332.252 C 1208.66 361.12 1202.53 408.876 1213.56 449.793 C 1219.22 461.729 1222.53 468.323 1229.05 479.572 C 1224.61 478.79 1219.53 478.391 1215.94 475.986 C 1214.88 474.026 1214.52 473.993 1214.47 472.03 C 1203.7 447.4 1202.76 423.974 1202.26 397.666 C 1202.02 384.94 1187.32 345.873 1170.25 350.7 C 1120.31 364.823 1116.74 413.917 1127 457.049 z"/>
<path transform="translate(-350,0)" fill="rgb(81,100,62)" d="M 1213.56 449.793 C 1219.22 461.729 1222.53 468.323 1229.05 479.572 C 1224.61 478.79 1219.53 478.391 1215.94 475.986 C 1214.88 474.026 1214.52 473.993 1214.47 472.03 L 1215.94 470.738 C 1217.25 466.95 1213.41 457.257 1213.56 449.793 z"/>
<path transform="translate(-350,0)" fill="rgb(60,62,61)" d="M 1458.26 305.562 C 1467.38 304.876 1476.43 304.626 1485.57 304.312 C 1475.56 313.519 1465.76 321.573 1458.15 332.957 C 1435.18 367.288 1437.42 418.938 1459.96 453.035 C 1463.56 458.472 1473.98 467.294 1474.67 470.966 C 1470.92 473.26 1461.23 470.677 1456.5 469.779 C 1433.04 464.953 1424.99 468.249 1409.93 447.052 C 1418.84 410.734 1416.17 392.236 1399.69 359.238 C 1404.43 345.442 1413.33 328.115 1423.56 317.916 C 1435.33 306.186 1443.02 305.637 1458.26 305.562 z"/>
<path transform="translate(-350,0)" fill="rgb(197,177,143)" d="M 1125.62 248.606 L 1130.24 250.023 C 1115.01 255.002 1105.72 265.387 1098.61 279.542 C 1089.79 297.449 1087.84 317.965 1093.11 337.216 L 1094.41 348.444 C 1088.4 348.112 1085.82 346.841 1080.13 344.88 C 1063.97 339.311 1056.81 339.084 1041.8 346.505 C 1038.92 337.974 1034.66 329.974 1029.19 322.823 C 1016.86 306.822 994.935 293.637 974.801 290.988 C 1008.51 279.367 1042.65 269.055 1077.16 260.076 C 1088.84 257.021 1116.63 252.045 1125.62 248.606 z"/>
<path transform="translate(-350,0)" fill="rgb(89,75,59)" d="M 1095.02 322.581 C 1093.61 284.998 1111.45 251.887 1152.61 249.741 C 1171.1 248.778 1181.99 259.857 1193.12 272.905 C 1171.07 269.933 1152.67 268.481 1134.03 282.949 C 1115.35 297.454 1111.46 312.775 1111.75 335.191 C 1108.34 337.83 1104.22 340.71 1101.46 343.919 C 1099.94 346.62 1097.44 347.165 1094.41 348.444 L 1093.11 337.216 C 1095.07 333.771 1094.78 327.05 1095.02 322.581 z"/>
<path transform="translate(-350,0)" fill="rgb(38,34,25)" d="M 1095.02 322.581 C 1095.99 328.98 1096.62 340.236 1101.46 343.919 C 1099.94 346.62 1097.44 347.165 1094.41 348.444 L 1093.11 337.216 C 1095.07 333.771 1094.78 327.05 1095.02 322.581 z"/>
<path transform="translate(-350,0)" fill="rgb(151,138,98)" d="M 1011.34 176.124 C 1041.41 144.043 1067.35 120.67 1109.12 104.223 C 1112.78 107.55 1124.44 117.792 1124.81 121.911 L 1123.11 122.811 C 1101.63 131.341 1094.52 135.671 1075.94 148.907 C 1066.04 155.662 1049.42 170.309 1042.78 180.188 C 1033.15 178.213 1021.28 177.204 1011.34 176.124 z"/>
<path transform="translate(-350,0)" fill="rgb(115,105,70)" d="M 1075.94 148.907 C 1075.8 146.647 1074.49 146.534 1075.51 144.938 C 1080.87 136.532 1105.4 122.596 1114.42 119.79 C 1114.04 121.085 1113.73 122.257 1113.41 123.568 L 1115.21 123.777 L 1116.38 122.181 C 1118.58 122.253 1120.91 122.569 1123.11 122.811 C 1101.63 131.341 1094.52 135.671 1075.94 148.907 z"/>
<path transform="translate(-350,0)" fill="rgb(60,62,61)" d="M 1297.51 293.5 C 1301.26 293.228 1304.06 292.645 1307.52 293.958 L 1307.64 295.437 C 1300.34 301.921 1293.2 311.364 1286.99 319.114 C 1271.16 319.962 1263.33 322.333 1248.31 324.669 C 1239.4 326.056 1219.41 325.586 1209.51 325.564 L 1195.02 325.526 C 1201.91 313.691 1210.18 303.825 1221.85 296.57 C 1246.89 295.078 1272.37 294.546 1297.51 293.5 z"/>
<path transform="translate(-350,0)" fill="rgb(197,177,143)" d="M 1217.5 486.169 C 1237.67 491.121 1244.2 494.101 1263.47 500.563 C 1257.78 509.405 1240.96 529.762 1234.17 538.275 C 1228.13 546.493 1219.53 556.23 1212.88 564.891 C 1212.13 555.776 1211.5 538.737 1212.76 529.795 C 1215.22 512.375 1217.83 504.035 1217.5 486.169 z"/>
<path transform="translate(-350,0)" fill="rgb(60,62,61)" d="M 1092.8 355.668 C 1092.47 356.218 1092.15 356.77 1091.83 357.326 C 1077.43 382.403 1078.77 407.212 1086.03 433.845 L 1072.24 431.251 C 1069.43 430.398 1065.91 428.277 1063.24 426.815 C 1048.76 403.77 1048.3 366.617 1077.68 356.339 C 1081.81 355.833 1088.45 355.806 1092.8 355.668 z"/>
<path transform="translate(-350,0)" fill="url(#Gradient1)" d="M 1328.88 294.499 C 1374.25 289.502 1369.03 315.847 1393.6 317.366 L 1394.25 316.376 L 1389.89 312.336 L 1390.47 311.298 C 1399.74 311.078 1409.02 310.987 1418.3 311.023 C 1405.58 323.792 1400.69 332.666 1393.48 348.712 C 1390.67 345.388 1387.85 342.873 1384.68 339.939 C 1381.49 336.404 1373.66 331.012 1369.19 327.071 C 1366.58 298.858 1338.95 289.326 1324.91 319.039 C 1315.7 319.191 1306.5 319.029 1297.3 318.555 C 1306.71 305.916 1313.9 298.521 1328.88 294.499 z"/>
<path transform="translate(-350,0)" fill="rgb(60,62,61)" d="M 1055.84 349.077 C 1060.37 348.858 1066.3 347.648 1069.08 351.588 C 1063.05 358.487 1058.54 359.357 1052.82 370.259 C 1044.38 386.327 1043.75 407.888 1052.42 423.954 C 1054.92 428.581 1059.29 431.734 1060.58 435.986 L 1059.17 437.228 L 1054.59 436.83 C 1013.61 419.166 1019.64 363.113 1055.84 349.077 z"/>
<path transform="translate(-350,0)" fill="rgb(254,254,251)" d="M 1162.18 279.436 C 1179.11 277.599 1184.39 281.154 1199.67 289.058 C 1203.87 291.229 1206.06 292.352 1207.37 296.727 L 1206.1 298.138 C 1187.28 303.708 1173.79 281.998 1149.03 305.138 C 1132.92 324.115 1150.18 322.742 1121.27 329.251 C 1122.75 302.891 1136.78 286.727 1162.18 279.436 z"/>
<path transform="translate(-350,0)" fill="rgb(89,75,59)" d="M 1202.94 262.434 C 1226.19 259.797 1243.61 263.276 1255.79 285.426 C 1253.87 286.568 1250.49 286.158 1247.89 286.18 C 1239.76 286.207 1235.45 282.171 1227.54 281.852 C 1224.99 281.749 1216.02 285.462 1214.97 284.854 C 1210.98 282.553 1200.16 269.038 1198.45 265.082 C 1199.9 262.903 1199.81 263.516 1202.94 262.434 z"/>
<path transform="translate(-350,0)" fill="rgb(151,138,98)" d="M 861.251 27.4256 C 872.311 27.7687 875.243 29.3024 885.464 33.395 C 865.581 38.6652 854.199 42.1526 835.252 50.2897 C 831.438 52.1936 824.09 56.6354 820.503 55.9726 C 819.825 51.2116 823.236 46.5262 826.216 43.0766 C 835.26 32.6055 847.87 28.3054 861.251 27.4256 z"/>
<path transform="translate(-350,0)" fill="rgb(81,100,62)" d="M 1341.28 307.061 C 1351.24 305.835 1365.83 312.586 1362.51 323.095 C 1359.15 324.226 1358.12 323.279 1354.24 322.325 C 1347.77 320.812 1335.31 321 1332.28 317.501 C 1332.96 312.385 1337 310.342 1341.28 307.061 z"/>
<path transform="translate(-350,0)" fill="rgb(60,62,61)" d="M 1168.77 304.267 C 1171.8 304.221 1177.64 303.951 1179.93 305.585 C 1171.97 311.424 1170.68 312.82 1166.75 321.968 C 1165.31 325.331 1164.36 325.614 1161.24 326.622 L 1147.85 325.835 C 1152.59 316.677 1158.72 307.557 1168.77 304.267 z"/>
<path transform="translate(-350,0)" fill="rgb(60,62,61)" d="M 1185.97 308.172 C 1190.09 307.478 1192.06 306.191 1193.78 310.13 C 1193.61 313.74 1192.1 316.534 1190 319.447 C 1186.44 324.401 1188.26 324.806 1183.25 325.966 C 1178.33 326.137 1176.94 327.043 1173.46 324.828 L 1173.11 322.043 C 1175.4 316.606 1181.36 311.741 1185.97 308.172 z"/>
<path transform="translate(-350,0)" fill="rgb(89,75,59)" d="M 1125.62 248.606 C 1132.55 246.813 1148.64 242.935 1155.26 244.802 L 1154 245.24 L 1153.62 244.58 L 1152.49 245.558 C 1149 246.308 1132.86 249.963 1130.24 250.023 L 1125.62 248.606 z"/>
<path transform="translate(-350,0)" fill="rgb(23,22,23)" d="M 1324.18 720.723 C 1329.46 720.669 1330.56 719.321 1337.26 719.598 C 1311.22 752.495 1283.8 784.276 1255.08 814.856 C 1255.53 818.709 1256.28 821.969 1255.19 825.62 C 1252.33 829.032 1245.22 827.201 1246.29 830.426 C 1253.37 851.726 1261.14 865.641 1259.34 889.345 C 1257.39 892.009 1255.71 894.361 1253.55 896.879 C 1265.31 942.444 1276.41 1015.21 1279.27 1062.93 C 1280.06 1077.53 1280.49 1092.16 1280.57 1106.78 C 1280.6 1111.9 1280.12 1132.05 1281.35 1135.68 C 1294.83 1175.39 1322.31 1208.45 1326.35 1251.92 C 1328.77 1277.87 1325.62 1295.18 1312.69 1317.98 C 1297.56 1344.66 1273.75 1362.13 1254.66 1384.92 C 1268.99 1390.85 1316.26 1409.99 1305.52 1426.4 C 1292.42 1446.4 1217.58 1434.24 1199.11 1423.61 C 1188.71 1417.63 1186.16 1412.92 1183.14 1404.57 C 1185.83 1387.88 1193.69 1383.07 1195.25 1365.46 C 1190.36 1352.4 1181.35 1345.33 1169.37 1338.17 C 1143.56 1345.72 1108.29 1351.05 1081.18 1355.81 C 1063.52 1387.26 1035.42 1405.59 1004.56 1421.92 C 1016.89 1429.24 1029.77 1437.63 1033.77 1452.32 C 1037.73 1466.85 1027.89 1474.72 1014.74 1476.98 C 988.889 1481.43 961.66 1470.74 939.997 1457.36 C 933.043 1452.99 923.454 1444 922.476 1435.95 C 919.945 1415.13 944.51 1399.62 936.758 1376.01 C 929.496 1353.89 913.198 1334.52 903.868 1312.46 C 777.22 1351.13 663.14 1384.41 538.288 1317.13 C 515.52 1304.86 481.275 1281.49 465.561 1261.2 C 465.212 1256.72 466.116 1254.26 467.243 1249.98 C 560.818 1343.48 676.134 1362.39 801.126 1330.2 C 833.952 1321.75 866.696 1314.82 898.793 1303.24 C 897.488 1295.79 892.73 1278.17 894.837 1272.1 L 896.13 1272.16 C 899.257 1276.15 910.282 1301.5 913.678 1308.27 C 924.448 1329.77 937.919 1350.87 946.963 1372.99 C 950.152 1380.79 948.757 1383.89 948.901 1390.13 C 949.259 1405.65 926.119 1429.22 936.567 1440.93 C 946.103 1451.62 974.764 1463.04 988.168 1465.92 C 984.989 1461.28 980.705 1456.21 979.51 1451 L 980.201 1449.59 C 987.332 1451.53 995.238 1461.27 1000.4 1466.68 C 1005.02 1466.81 1012.56 1468.28 1014.89 1464.04 L 1014.07 1461.37 C 1006.75 1458.53 997.683 1442.63 996.105 1435.35 C 995.31 1431.68 993.13 1429.8 991.433 1426.41 C 990.663 1422.34 991.228 1419.82 994.437 1416.98 C 1001.59 1410.67 1010.76 1406.05 1018.99 1401.2 C 1037.7 1390.18 1054.29 1376.21 1067.08 1358.52 C 1095.1 1319.79 1078.87 1268.68 1060.63 1229.47 C 1058.94 1225.83 1052.28 1214.17 1054.63 1210.83 C 1061.12 1213.23 1066.6 1224.57 1069.62 1230.5 C 1087.82 1266.29 1097.97 1303.84 1086.49 1343.62 C 1138.68 1336.22 1194.98 1330.18 1230.14 1286.61 C 1236.03 1279.31 1242.5 1270.79 1249.16 1264.39 L 1250.17 1263.43 C 1239.03 1298.38 1212.89 1318.18 1181.99 1334.09 C 1187.3 1339.36 1194.45 1344.53 1198.95 1350.03 C 1214.73 1367.79 1197.87 1385.41 1195.72 1401.55 C 1192.67 1424.54 1257.04 1424.84 1270.9 1425.28 C 1264.88 1421.66 1259.78 1417.38 1253.68 1413.67 C 1250.8 1414.48 1252.14 1414.59 1249.5 1413.52 C 1248.84 1410.19 1248.67 1411.79 1250.29 1408.58 C 1255.61 1405.99 1266.6 1412.8 1270.54 1410.48 C 1267.34 1402.85 1229.1 1400.8 1245.78 1380.77 C 1267.56 1347.1 1307 1327.06 1315.22 1281.86 C 1322.36 1242.57 1299.33 1190.83 1278.38 1159.5 C 1277.02 1181.53 1272.09 1199.42 1263.6 1219.55 C 1264.14 1193.77 1269.24 1164.34 1269.94 1136.85 C 1272.18 1048.92 1260.55 967.193 1241.21 881.732 C 1244.19 881.314 1246.3 882.368 1250.23 882.021 C 1245.05 842.334 1235.04 832.538 1221.11 798.176 C 1227.64 802.919 1233.54 807.666 1240.28 812.4 L 1241.55 812.072 C 1240.67 805.694 1231.37 790.415 1227.63 784.165 C 1217.05 766.457 1206.22 743.498 1204.33 722.63 C 1217.55 750.839 1234.78 778.744 1250.34 805.954 C 1274.16 780.522 1301.1 747.563 1324.18 720.723 z"/>
<path transform="translate(-350,0)" fill="rgb(151,138,98)" d="M 991.433 1426.41 C 998.039 1429.99 1009.72 1437.52 1015.52 1442.05 C 1036.2 1448.74 1026.64 1471.99 1002.25 1468.12 L 1000.4 1466.68 C 1005.02 1466.81 1012.56 1468.28 1014.89 1464.04 L 1014.07 1461.37 C 1006.75 1458.53 997.683 1442.63 996.105 1435.35 C 995.31 1431.68 993.13 1429.8 991.433 1426.41 z"/>
<path transform="translate(-350,0)" fill="rgb(19,20,20)" d="M 997.948 1437.95 C 1008.17 1443.54 1017.71 1455.12 1023.09 1456.66 C 1021.96 1449.37 1020.1 1447.54 1015.52 1442.05 C 1036.2 1448.74 1026.64 1471.99 1002.25 1468.12 L 1000.4 1466.68 C 1005.02 1466.81 1012.56 1468.28 1014.89 1464.04 L 1014.07 1461.37 C 1012.14 1456.39 1002 1444.3 997.948 1437.95 z"/>
<path transform="translate(-350,0)" fill="rgb(151,138,98)" d="M 1253.68 1413.67 C 1250.8 1414.48 1252.14 1414.59 1249.5 1413.52 C 1248.84 1410.19 1248.67 1411.79 1250.29 1408.58 C 1255.61 1405.99 1266.6 1412.8 1270.54 1410.48 C 1267.34 1402.85 1229.1 1400.8 1245.78 1380.77 C 1243.1 1398.24 1256.71 1398.85 1270.48 1403.17 C 1276.94 1413.61 1285.67 1416.57 1293.47 1426.35 L 1292.11 1425.87 C 1282.81 1422.52 1261.5 1409.46 1254.31 1411.86 L 1253.68 1413.67 z"/>
<path transform="translate(-350,0)" fill="rgb(23,22,23)" d="M 454.654 1249.44 C 443.485 1236.82 433.35 1223.32 424.349 1209.07 C 390.049 1154.28 363.121 1068.07 377.966 1002.87 C 379.017 994.47 388.177 972.952 399.705 977.732 C 412.266 984.87 416.732 1018.79 420.721 1031.9 C 449.975 1128.02 510.631 1216.83 610.98 1247.38 C 694.3 1272.76 782.429 1261.98 859.96 1222.17 C 867.765 1222.12 869.324 1218.99 879.863 1219.55 C 873.867 1224.87 859.452 1233.27 852.036 1237.14 C 781.623 1273.86 684.466 1280.15 609.008 1257.02 C 528.388 1232.32 475.529 1174.27 437.485 1101.27 C 435.489 1098.23 435.093 1097.34 432.385 1095.03 C 424.927 1098.89 421.638 1105.54 413.158 1107.29 C 405.087 1108.94 392.405 1100.97 393.766 1112.95 C 405.427 1153.05 418.829 1185.06 442.809 1219.62 C 448.308 1227.54 463.142 1244.14 466.269 1249.5 L 467.243 1249.98 C 466.116 1254.26 465.212 1256.72 465.561 1261.2 C 462.008 1257.64 458.113 1253.19 454.654 1249.44 z"/>
<path transform="translate(-350,0)" fill="rgb(89,75,59)" d="M 393.766 1112.95 C 388.954 1106.88 384.349 1061.04 383.627 1050.27 C 382.964 1040.39 384.778 989.92 397.348 990.349 C 399.727 995.055 400.722 999.592 402.186 1004.58 C 409.798 1030.5 416.921 1056.53 428.521 1081.04 C 431.424 1087.17 435.908 1094.86 437.485 1101.27 C 435.489 1098.23 435.093 1097.34 432.385 1095.03 C 424.927 1098.89 421.638 1105.54 413.158 1107.29 C 405.087 1108.94 392.405 1100.97 393.766 1112.95 z"/>
<path transform="translate(-350,0)" fill="rgb(19,19,19)" d="M 454.654 1249.44 C 463.577 1249.32 456.498 1245.93 466.269 1249.5 L 467.243 1249.98 C 466.116 1254.26 465.212 1256.72 465.561 1261.2 C 462.008 1257.64 458.113 1253.19 454.654 1249.44 z"/>
<path transform="translate(-350,0)" fill="rgb(89,75,59)" d="M 731.112 410.398 C 744.315 401.003 798.358 365.86 812.016 360.937 L 810.478 362.811 L 810.251 363.635 C 805.956 378.871 800.338 391.686 803.051 409.422 C 806.405 416.258 805.445 493.56 802.959 504.553 C 801.682 513.875 796.454 537.594 798.726 544.528 L 800.464 546.024 C 804.016 545.67 805.164 544.173 807.46 541.342 C 808.607 539.916 809.732 538.471 810.834 537.008 C 810.467 552.996 809.026 567.461 814.927 582.554 C 808.776 580.012 810.266 576.83 803.766 574.912 C 801.703 568.329 804.255 564.243 801.982 558.122 C 798.647 555.991 798.392 557.151 794.789 556.896 C 784.541 556.17 788.645 539.592 789.648 532.764 C 790.894 530.968 788.502 524.017 787.666 523.744 C 755.427 513.206 734.99 487.501 722.929 456.863 C 719.38 447.849 721.076 413.31 731.112 410.398 z"/>
<path transform="translate(-350,0)" fill="rgb(60,62,61)" d="M 731.112 410.398 C 744.315 401.003 798.358 365.86 812.016 360.937 L 810.478 362.811 C 806.027 369.544 795.716 370.387 790.513 375.091 C 774.822 389.278 749.182 397.773 734.422 412.089 C 728.006 418.313 724.687 441.06 726.317 449.38 C 728.254 469.296 767.653 517.836 788.25 515.964 C 788.823 515.263 790.291 513.894 790.576 513.121 C 795.178 500.641 799.477 435.923 799.237 420.423 C 794.244 411.515 779.661 412.319 771.037 416.306 C 754.651 423.88 760.282 456.605 755.762 463.68 C 748.132 464.986 746.791 449.464 746.501 444.1 C 745.107 418.262 761.218 397.893 787.479 396.116 C 792.018 395.804 795.741 396.721 799.534 399.321 C 800.781 401.926 800.712 402.331 800.932 405.106 L 802.077 409.374 L 803.051 409.422 C 806.405 416.258 805.445 493.56 802.959 504.553 C 801.682 513.875 796.454 537.594 798.726 544.528 L 800.464 546.024 C 804.016 545.67 805.164 544.173 807.46 541.342 C 808.607 539.916 809.732 538.471 810.834 537.008 C 810.467 552.996 809.026 567.461 814.927 582.554 C 808.776 580.012 810.266 576.83 803.766 574.912 C 801.703 568.329 804.255 564.243 801.982 558.122 C 798.647 555.991 798.392 557.151 794.789 556.896 C 784.541 556.17 788.645 539.592 789.648 532.764 C 790.894 530.968 788.502 524.017 787.666 523.744 C 755.427 513.206 734.99 487.501 722.929 456.863 C 719.38 447.849 721.076 413.31 731.112 410.398 z"/>
<path transform="translate(-350,0)" fill="rgb(19,20,20)" d="M 789.648 532.764 C 790.894 530.968 788.502 524.017 787.666 523.744 C 755.427 513.206 734.99 487.501 722.929 456.863 C 719.38 447.849 721.076 413.31 731.112 410.398 C 724.774 421.108 721.792 443.434 725.712 455.217 C 736.436 487.454 759.632 510.273 790.722 521.753 L 791.278 520.6 C 800.306 501.557 797.311 461.507 800.73 440.622 C 804.434 460.614 800.935 487.742 802.959 504.553 C 801.682 513.875 796.454 537.594 798.726 544.528 L 800.464 546.024 C 804.016 545.67 805.164 544.173 807.46 541.342 C 808.607 539.916 809.732 538.471 810.834 537.008 C 810.467 552.996 809.026 567.461 814.927 582.554 C 808.776 580.012 810.266 576.83 803.766 574.912 C 801.703 568.329 804.255 564.243 801.982 558.122 C 798.647 555.991 798.392 557.151 794.789 556.896 C 784.541 556.17 788.645 539.592 789.648 532.764 z"/>
<path transform="translate(-350,0)" fill="rgb(19,19,19)" d="M 802.077 409.374 L 801.944 412.161 C 797.543 418.128 783.77 405.643 771.535 412.725 C 758.962 420.003 756.793 432.553 755.391 446.146 C 754.962 450.302 755.75 455.033 754.473 458.612 C 738.525 448.586 756.458 383.404 800.932 405.106 L 802.077 409.374 z"/>
<path transform="translate(-350,0)" fill="rgb(23,22,23)" d="M 814.927 582.554 C 821.788 580.276 818.658 574.714 822.892 572.068 C 829.087 578.87 824.83 594.187 832.93 594.978 L 835.339 592.685 C 840.973 595.652 846.137 602.682 852.662 606.857 C 877.523 622.762 923.951 639.365 944.064 658.546 C 935.144 655.062 928.083 652.363 918.904 649.628 C 948.59 698.528 952.338 744.637 955.804 799.931 C 962.063 892.986 953.61 986.446 930.756 1076.87 C 924.213 1103.63 915.128 1133.39 909.266 1159.69 L 906.388 1159.87 C 906.656 1152.46 906.95 1146.99 903.005 1141.24 C 910.938 1108.02 919.946 1076.2 927.322 1042.65 C 943.787 968.942 949.176 897.575 946.343 821.814 C 944.104 763.339 940.511 697.316 907.043 647.29 C 905.751 645.359 873.73 629.465 868.927 626.791 C 859.131 621.339 847.937 613.873 838.264 608.047 C 822.668 607.855 827.39 598.393 820.319 594.684 C 806.955 587.675 808.907 593.186 803.766 574.912 C 810.266 576.83 808.776 580.012 814.927 582.554 z"/>
<path transform="translate(-350,0)" fill="rgb(23,22,23)" d="M 1205.01 520.861 C 1206.27 536.923 1205.65 557.033 1206.9 573.327 C 1208.13 589.306 1201.69 638.502 1208.17 650.53 C 1208.28 652.868 1207.85 659.259 1207.74 661.871 C 1222.09 653.662 1265.7 626.336 1272.24 612.239 L 1274.72 609.912 C 1278.75 610.599 1278.1 611.895 1282.86 611.809 C 1281.04 616.384 1277.06 627.554 1273.99 630.966 C 1271.86 631.176 1271.65 631.053 1269.51 630.696 C 1244.25 649.155 1235.87 657.233 1207.12 671.908 C 1206.01 685.759 1204.48 726.8 1195.67 738.119 C 1195.01 738.967 1191.51 739.771 1190.12 740.061 C 1187.36 745.113 1185.01 756.169 1180.66 764.931 C 1177.91 767.704 1177.63 768.393 1174.01 769.155 C 1171.28 767.609 1172.17 768.514 1170.97 764.933 C 1172.3 759.776 1168.88 757.249 1170.18 748.087 L 1172.1 743.873 C 1176.34 745.101 1173.38 746.636 1176.33 750.449 C 1181.67 745.794 1181.88 727.46 1185.64 724.378 C 1187.27 725.7 1188.64 726.767 1190.34 727.997 C 1199.3 718.347 1204.04 563.778 1203.04 542.747 C 1202.73 536.301 1203.55 527.74 1205.01 520.861 z"/>
<path transform="translate(-350,0)" fill="rgb(19,19,19)" d="M 1172.1 743.873 C 1172.44 750.386 1171.64 753.736 1175.18 759.592 C 1177.25 761.007 1177.11 760.892 1179.63 761.112 L 1180.66 764.931 C 1177.91 767.704 1177.63 768.393 1174.01 769.155 C 1171.28 767.609 1172.17 768.514 1170.97 764.933 C 1172.3 759.776 1168.88 757.249 1170.18 748.087 L 1172.1 743.873 z"/>
<path transform="translate(-350,0)" fill="rgb(19,20,20)" d="M 1323.54 508.05 C 1327.17 507.775 1330.62 507.624 1334.22 507.469 C 1346.42 506.943 1357.66 500.896 1369.46 498.762 C 1369.29 498.792 1374.94 501.379 1375.36 501.567 C 1377.98 522.602 1373.31 548.239 1376.51 569.986 C 1377.19 574.589 1376.33 580.144 1377.11 585.022 C 1377.39 598.361 1373.88 681.068 1368.96 688.242 C 1364.72 689.661 1362.5 688.839 1360.88 692.101 C 1357.94 698.018 1355.12 711.128 1348.2 713.399 C 1341.04 715.745 1342.31 712.638 1337.26 719.598 C 1330.56 719.321 1329.46 720.669 1324.18 720.723 C 1333.96 708.033 1341.66 697.718 1353.49 686.957 L 1354.67 681.919 C 1356.05 675.854 1356.37 674.781 1362.4 672.58 C 1368.24 660.818 1369.93 523.216 1369.14 502.373 C 1353.25 509.19 1340.69 510.773 1323.54 508.05 z"/>
<path transform="translate(-350,0)" fill="rgb(23,22,23)" d="M 1109.32 633.843 C 1109.37 640.502 1107.52 645.762 1112.6 650.15 C 1095.43 687.766 1045.03 711.505 1011.37 732.795 C 1002.62 738.327 994.46 744.897 986.308 751.285 C 1009.6 711.034 1071.93 695.198 1099.02 655.813 C 1102.47 650.8 1106.83 639.777 1109.32 633.843 z"/>
<path transform="translate(-350,0)" fill="rgb(23,22,23)" d="M 1170.18 748.087 C 1168.88 757.249 1172.3 759.776 1170.97 764.933 C 1169.68 763.026 1170.57 763.533 1168.46 763.068 C 1150.06 792.709 1091.72 858.569 1062.27 875.788 C 1072.16 859.853 1102.54 829.685 1116.02 814.362 C 1135.02 792.759 1153.68 771.895 1170.18 748.087 z"/>
<path transform="translate(-350,0)" fill="rgb(19,19,19)" d="M 903.005 1141.24 C 906.95 1146.99 906.656 1152.46 906.388 1159.87 C 901.256 1170.96 896.205 1199.12 895.055 1211.29 C 893.804 1208.23 895.793 1203.35 894.396 1200.44 C 891.47 1202.76 891.915 1208.48 891.739 1212.27 C 890.299 1211.99 888.919 1211.81 887.451 1211.78 L 886.639 1213.15 C 884.259 1215.75 882.829 1217.58 879.863 1219.55 C 869.324 1218.99 867.765 1222.12 859.96 1222.17 C 865.043 1218.87 886.064 1205.94 887.604 1202.33 C 893.663 1188.14 898.999 1157 903.005 1141.24 z"/>
<path transform="translate(-350,0)" fill="rgb(19,20,20)" d="M 906.388 1159.87 L 909.266 1159.69 C 904.642 1177.11 901.838 1188.96 899.235 1206.66 C 897.63 1217.58 895.646 1238.66 892.964 1248.39 C 889.96 1238.9 888.112 1215.62 886.639 1213.15 L 887.451 1211.78 C 888.919 1211.81 890.299 1211.99 891.739 1212.27 C 891.915 1208.48 891.47 1202.76 894.396 1200.44 C 895.793 1203.35 893.804 1208.23 895.055 1211.29 C 896.205 1199.12 901.256 1170.96 906.388 1159.87 z"/>
<path transform="translate(-350,0)" fill="rgb(23,22,23)" d="M 982.178 514.87 C 983.451 511.762 984.781 508.678 986.169 505.62 C 989.999 497.383 1003.53 484.259 1013.11 489.032 L 1013.63 490.858 C 1011.76 494.043 1008.65 494.649 1005 496.093 C 1013.02 503.878 1019.08 506.939 1029.32 511.151 C 1027.38 512.709 1025 514.797 1022.9 516.009 C 1012.53 510.95 1006.89 506.882 999.028 498.576 C 993.747 503.221 987.529 509.801 982.178 514.87 z"/>
<path transform="translate(-350,0)" fill="rgb(38,34,25)" d="M 1236.55 864.862 C 1241.71 870.657 1243.89 876.708 1250.23 882.021 C 1246.3 882.368 1244.19 881.314 1241.21 881.732 C 1239.45 877.248 1237.79 869.767 1236.55 864.862 z"/>
<path transform="translate(-350,0)" fill="rgb(23,22,23)" fill-opacity="0.988235" d="M 1375.36 501.567 C 1376.02 500.662 1377.32 497.491 1377.85 496.288 C 1379.56 506.191 1378.55 574.094 1377.11 585.022 C 1376.33 580.144 1377.19 574.589 1376.51 569.986 C 1373.31 548.239 1377.98 522.602 1375.36 501.567 z"/>
</svg>