<?xml version="1.0" encoding="UTF-8"?>
<svg version="1.1" xmlns="http://www.w3.org/2000/svg" width="500" height="500" viewBox="0 -75 500 500">
    <!-- Face Fur -->
    <path d="M0 0 C2.71318479 2.27907522 5.39819362 4.59455636 8 7 C12.91815815 6.16280368 12.91815815 6.16280368 17.0625 4.4375 C28.77383626 1.02787046 39.48280478 3.10683665 50.125 8.6875 C64.67364271 18.5731162 72.60583921 30.74634931 76 48 C76.73352209 60.51203203 76.52177086 71.9034827 73 84 C74.14045551 91.98318859 75.26556088 92.88270202 81.0625 98 C82.42246094 99.216875 83.78242187 100.43375 85.18359375 101.6875 C87.99503264 104.12772536 90.80924688 106.56475406 93.625 109 C97 112 97 112 102 118 C101.67 119.65 101.34 121.3 101 123 C100.01 123.33 99.02 123.66 98 124 C99.11375 125.546875 100.2275 127.09375 101.375 128.6875 C106.1928067 135.74807878 107 138.26870315 107 147 C106.67 147.33 106.34 147.66 106 148 C100 148 100 148 98 147 C98.639375 148.4025 99.27875 149.805 99.9375 151.25 C103.06328156 158.44876966 103.24499043 164.16030627 103 172 C102.34 173.32 101.68 174.64 101 176 C95 176 95 176 92 174 C92.0825 175.753125 92.165 177.50625 92.25 179.3125 C91.64634058 195.46038938 81.96706402 206.98089339 72 219 C71.19691406 219.98871094 70.39382813 220.97742188 69.56640625 221.99609375 C57.10666485 237.00080361 43.23570814 250.8322726 28 263 C26.453125 264.27875 24.90625 265.5575 23.3125 266.875 C-7.71154189 290.96425605 -43.194182 308.02241542 -82 315 C-83.423125 315.27199219 -84.84625 315.54398438 -86.3125 315.82421875 C-106.93067233 319.54492766 -127.52299884 320.34259281 -148.4375 320.3125 C-150.67337891 320.32861328 -152.90925781 320.34472656 -155.21289062 320.36132812 C-191.78708802 320.37195707 -239.27818681 315.37093498 -268 290 C-269.340625 288.865625 -270.68125 287.73125 -272.0625 286.5625 C-273.031875 285.716875 -274.00125 284.87125 -275 284 C-276.98 284.33 -278.96 284.66 -281 285 C-285 280 -285 280 -286 274 C-286.99 274.66 -287.98 275.32 -289 276 C-290.98 276 -292.96 276 -295 276 C-301.84155274 266.09775261 -302.25044011 257.89590507 -302 246 C-302.99 246.66 -303.98 247.32 -305 248 C-306.65 248 -308.3 248 -310 248 C-314.56226519 242.29716851 -314.55950132 240.99376654 -314 234 C-313.4115066 231.31499887 -312.76780347 228.63932442 -312 226 C-313.98 225.67 -315.96 225.34 -318 225 C-327.27340274 220.86818389 -335.30978566 215.63676032 -343 209 C-344.299375 207.96875 -345.59875 206.9375 -346.9375 205.875 C-360.48202956 192.95560258 -371.09727608 176.23110061 -372.3984375 157.16015625 C-372.39070312 155.14792969 -372.38296875 153.13570312 -372.375 151.0625 C-372.38273438 149.05285156 -372.39046875 147.04320312 -372.3984375 144.97265625 C-371.21506266 127.23363534 -362.8161233 113.14889327 -349.875 101.3125 C-334.7462293 90.20733853 -317.75454672 84.73069663 -299 84 C-298.67 82.02 -298.34 80.04 -298 78 C-283.78551217 43.03388021 -248.30514477 15.91672757 -214.515625 1.0234375 C-192.49018919 -7.80928846 -168.87723607 -12.4889562 -145.2578125 -14.4453125 C-140.68106307 -14.9704826 -140.68106307 -14.9704826 -135.01171875 -16.390625 C-127.269468 -18.16767642 -119.537091 -19.43822096 -111.6875 -20.625 C-110.28693359 -20.8415625 -108.88636719 -21.058125 -107.44335938 -21.28125 C-68.94910104 -27.19501942 -32.63526492 -22.43674464 0 0 Z "
          fill="#CCB597" transform="translate(379,27)"/>
    <!-- Black Outline Head Right -->
    <path d="M0 0 C2.71318479 2.27907522 5.39819362 4.59455636 8 7 C12.91815815 6.16280368 12.91815815 6.16280368 17.0625 4.4375 C28.77383626 1.02787046 39.48280478 3.10683665 50.125 8.6875 C64.67364271 18.5731162 72.60583921 30.74634931 76 48 C76.73352209 60.51203203 76.52177086 71.9034827 73 84 C74.14045551 91.98318859 75.26556088 92.88270202 81.0625 98 C82.42246094 99.216875 83.78242187 100.43375 85.18359375 101.6875 C87.99503264 104.12772536 90.80924688 106.56475406 93.625 109 C97 112 97 112 102 118 C101.67 119.65 101.34 121.3 101 123 C100.01 123.33 99.02 123.66 98 124 C99.11375 125.546875 100.2275 127.09375 101.375 128.6875 C106.1928067 135.74807878 107 138.26870315 107 147 C106.67 147.33 106.34 147.66 106 148 C100 148 100 148 98 147 C98.639375 148.4025 99.27875 149.805 99.9375 151.25 C103.06328156 158.44876966 103.24499043 164.16030627 103 172 C102.34 173.32 101.68 174.64 101 176 C95 176 95 176 92 174 C92.0825 175.753125 92.165 177.50625 92.25 179.3125 C91.64634058 195.46038938 81.96706402 206.98089339 72 219 C71.19691406 219.98871094 70.39382813 220.97742188 69.56640625 221.99609375 C57.10666485 237.00080361 43.23570814 250.8322726 28 263 C26.453125 264.27875 24.90625 265.5575 23.3125 266.875 C-7.71154189 290.96425605 -43.194182 308.02241542 -82 315 C-83.423125 315.27199219 -84.84625 315.54398438 -86.3125 315.82421875 C-106.93067233 319.54492766 -127.52299884 320.34259281 -148.4375 320.3125 C-150.67337891 320.32861328 -152.90925781 320.34472656 -155.21289062 320.36132812 C-191.78708802 320.37195707 -239.27818681 315.37093498 -268 290 C-269.340625 288.865625 -270.68125 287.73125 -272.0625 286.5625 C-273.031875 285.716875 -274.00125 284.87125 -275 284 C-276.98 284.33 -278.96 284.66 -281 285 C-285 280 -285 280 -286 274 C-286.99 274.66 -287.98 275.32 -289 276 C-290.98 276 -292.96 276 -295 276 C-301.84155274 266.09775261 -302.25044011 257.89590507 -302 246 C-302.99 246.66 -303.98 247.32 -305 248 C-306.65 248 -308.3 248 -310 248 C-314.56226519 242.29716851 -314.55950132 240.99376654 -314 234 C-313.4115066 231.31499887 -312.76780347 228.63932442 -312 226 C-313.98 225.67 -315.96 225.34 -318 225 C-327.27340274 220.86818389 -335.30978566 215.63676032 -343 209 C-344.299375 207.96875 -345.59875 206.9375 -346.9375 205.875 C-360.48202956 192.95560258 -371.09727608 176.23110061 -372.3984375 157.16015625 C-372.39070312 155.14792969 -372.38296875 153.13570312 -372.375 151.0625 C-372.38273438 149.05285156 -372.39046875 147.04320312 -372.3984375 144.97265625 C-371.21506266 127.23363534 -362.8161233 113.14889327 -349.875 101.3125 C-334.7462293 90.20733853 -317.75454672 84.73069663 -299 84 C-298.67 82.02 -298.34 80.04 -298 78 C-283.78551217 43.03388021 -248.30514477 15.91672757 -214.515625 1.0234375 C-192.49018919 -7.80928846 -168.87723607 -12.4889562 -145.2578125 -14.4453125 C-140.68106307 -14.9704826 -140.68106307 -14.9704826 -135.01171875 -16.390625 C-127.269468 -18.16767642 -119.537091 -19.43822096 -111.6875 -20.625 C-110.28693359 -20.8415625 -108.88636719 -21.058125 -107.44335938 -21.28125 C-68.94910104 -27.19501942 -32.63526492 -22.43674464 0 0 Z M-125.19970703 -10.84667969 C-129.94825527 -10.00912678 -134.70264395 -9.23231042 -139.46484375 -8.4765625 C-185.66458815 -1.12423023 -228.27780266 9.64841571 -263 43 C-264.794375 44.4540625 -264.794375 44.4540625 -266.625 45.9375 C-281.70976108 59.62552394 -290.69462294 77.7760861 -299 96 C-299.66 97.32 -300.32 98.64 -301 100 C-301.61287017 103.06997351 -302.14496973 106.15647157 -302.625 109.25 C-303.01558594 111.70179688 -303.01558594 111.70179688 -303.4140625 114.203125 C-304.16166485 119.51807479 -304.16166485 119.51807479 -304 127 C-303.34 127.66 -302.68 128.32 -302 129 C-300.01971638 197.319785 -300.01971638 197.319785 -305.125 219.0625 C-306.84585754 226.50042872 -307.35641818 233.33700923 -307 241 C-305.9275 240.05125 -304.855 239.1025 -303.75 238.125 C-300 235 -300 235 -296 233 C-296.03480469 234.52109375 -296.06960938 236.0421875 -296.10546875 237.609375 C-296.24719452 248.21856113 -296.35378369 257.79890793 -293 268 C-292.34 268.33 -291.68 268.66 -291 269 C-288.23594857 262.66290303 -288.23594857 262.66290303 -287 256 C-282.57409906 260.42590094 -282.76306647 265.2712775 -281.84375 271.3125 C-281.28808763 275.24348562 -281.28808763 275.24348562 -278 278 C-277.67 276.35 -277.34 274.7 -277 273 C-274 276 -274 276 -270 282 C-235.22614995 306.70773556 -190.68059431 313.21567569 -149 313.125 C-146.37998047 313.13080078 -146.37998047 313.13080078 -143.70703125 313.13671875 C-121.8973433 313.12055145 -101.45923581 311.07993416 -80 307 C-78.36804688 306.70222656 -76.73609375 306.40445312 -75.0546875 306.09765625 C-40.9818963 299.28937293 -9.98196532 283.58557226 17 262 C18.65 260.72125 20.3 259.4425 22 258.125 C36.96240254 245.7810179 50.92501767 232.18520505 63 217 C64.27875 215.5975 65.5575 214.195 66.875 212.75 C80.4366391 197.1335671 86.82150342 185.9483371 86 165 C92 167 92 167 95 170 C95.66 170 96.32 170 97 170 C97 159.84754001 94.54270997 152.92877477 90 144 C90 143.01 90 142.02 90 141 C93.3 141.33 96.6 141.66 100 142 C98.27161974 133.35809871 92.20932876 127.96095561 86 122 C86 121.34 86 120.68 86 120 C88.64 119.67 91.28 119.34 94 119 C90.22510629 115.22510629 86.41840349 111.55836117 82.5 107.9375 C81.3965625 106.91527344 80.293125 105.89304687 79.15625 104.83984375 C76.51856482 102.46657998 73.7706832 100.21654656 71 98 C70.67 97.34 70.34 96.68 70 96 C69.34 96 68.68 96 68 96 C66.88625 99.774375 66.88625 99.774375 65.75 103.625 C61.86974461 116.77475437 54.13697857 124.36321469 43 132 C31.97674975 136.84198843 21.9445498 139.092819 10 140 C11.12740869 143.38222606 12.30092565 146.75231412 13.625 150.0625 C16.8134377 161.51188993 14.89138981 170.36654388 10 181 C4.69844755 190.10484009 -0.29756972 194.84181559 -10 199 C-14.59375 199.3984375 -14.59375 199.3984375 -19.5 199.375 C-21.1190625 199.38273438 -22.738125 199.39046875 -24.40625 199.3984375 C-29 199 -29 199 -36 196 C-36.99 196 -37.98 196 -39 196 C-39.928125 197.175625 -40.85625 198.35125 -41.8125 199.5625 C-53.26414937 211.69782993 -69.55807734 218.25077349 -86.04296875 219.43359375 C-106.97364987 219.44689997 -127.2553121 217.39480595 -143 202 C-143.99 201.01 -144.98 200.02 -146 199 C-151.01143134 204.1330715 -151.01143134 204.1330715 -155 210 C-155.99 210.33 -156.98 210.66 -158 211 C-156.91075697 203.9199203 -155.18375486 199.98437968 -150 195 C-143.32925022 191.66462511 -139.33322037 191.75555932 -132 192 C-131.67 192.66 -131.34 193.32 -131 194 C-133.64 194.33 -136.28 194.66 -139 195 C-139 196.32 -139 197.64 -139 199 C-119.69892203 211.65292889 -100.3372615 216.33760829 -77.4375 213.25 C-64.18165092 209.51595801 -53.21478127 203.36662893 -44 193 C-40.40371521 186.9254644 -40.40371521 186.9254644 -41 179 C-42.12535156 178.98582031 -43.25070312 178.97164062 -44.41015625 178.95703125 C-58.78417945 178.51048309 -71.42330624 176.26135501 -83 167 C-86 162 -86 162 -86 155 C-77.96014108 142.94021162 -68.15349563 137.87770434 -54.6875 133.125 C-40.72855026 130.77676546 -26.40835567 129.3028382 -14 137 C-10.83387421 143.33225159 -11.48326073 148.22511295 -13.4375 154.9375 C-18.45536906 164.85085107 -25.29701304 170.80685205 -35 176 C-35.33 180.62 -35.66 185.24 -36 190 C-26.68995631 193.99001872 -19.2385988 195.60650363 -9.3125 192.5625 C-0.61514859 187.39450858 3.99230659 180.10839411 8 171 C10.32083236 161.71667054 9.8203533 153.28111977 5 145 C-4.64840563 132.43886814 -20.70069646 126.62273775 -36 124 C-54.28523359 122.84270673 -67.46423053 125.1672671 -84 133 C-71.3253102 123.63175102 -59.74495715 119.06145779 -44 118 C-44 117.34 -44 116.68 -44 116 C-44.66 116 -45.32 116 -46 116 C-46.66 114.68 -47.32 113.36 -48 112 C-49.19625 110.55625 -50.3925 109.1125 -51.625 107.625 C-66.03259213 89.10095297 -73.30636802 69.43034256 -72 46 C-69.86678653 30.44009001 -64.28056008 18.97974515 -53 8 C-42.94197276 1.03675037 -33.20845836 -2.36579437 -21 -3 C-25.53817976 -6.40363482 -29.49341054 -7.71915472 -34.875 -9.5 C-36.62554688 -10.0878125 -38.37609375 -10.675625 -40.1796875 -11.28125 C-68.79081925 -19.73017481 -96.42144412 -16.00595502 -125.19970703 -10.84667969 Z "
          fill="#0A0908" transform="translate(379,27)"/>
    <!-- Eyeliner left -->
    <path d="M0 0 C12.74670616 10.62225514 20.41853313 24.6507098 23 41 C24.71654719 68.95216971 16.68813623 93.75184511 -2 115 C-23.44074269 138.14238893 -57.25581826 147.46898376 -87.90625 149.4453125 C-107.75692244 149.78835407 -124.42196966 147.23903915 -139.9375 133.6875 C-152.10426474 119.6489253 -155.88406567 104.81713409 -155.41796875 86.6015625 C-153.15329195 56.25066029 -139.77788646 27.7536381 -117.5625 6.75 C-83.25905892 -21.44460911 -36.96121313 -28.8477761 0 0 Z "
          fill="#5D4D3B" transform="translate(249,78)"/>
    <!-- Black Outline Head Right -->
    <path d="M0 0 C0.66666667 2 1.33333333 4 2 6 C2.99 4.35 3.98 2.7 5 1 C5.66 0.67 6.32 0.34 7 0 C7 0.66 7 1.32 7 2 C7.99 2.33 8.98 2.66 10 3 C8.370625 4.32 6.74125 5.64 5.0625 7 C-15.60895844 24.04862552 -27.98183463 42.82360252 -39 67 C-39.99 68.98 -39.99 68.98 -41 71 C-41.61287017 74.06997351 -42.14496973 77.15647157 -42.625 80.25 C-43.01558594 82.70179688 -43.01558594 82.70179688 -43.4140625 85.203125 C-44.16166485 90.51807479 -44.16166485 90.51807479 -44 98 C-43.34 98.66 -42.68 99.32 -42 100 C-40.02137241 168.26265201 -40.02137241 168.26265201 -45.125 190.125 C-46.76479462 197.21863007 -47.37504912 203.68654218 -47 211 C-44.36 208.36 -41.72 205.72 -39 203 C-38.01 203.33 -37.02 203.66 -36 204 C-36.03480469 205.52109375 -36.06960938 207.0421875 -36.10546875 208.609375 C-36.24719452 219.21856113 -36.35378369 228.79890793 -33 239 C-31.35 235.04 -29.7 231.08 -28 227 C-27.01 227.33 -26.02 227.66 -25 228 C-24.5978125 230.165625 -24.5978125 230.165625 -24.1875 232.375 C-23.06327454 237.70027851 -21.63093056 242.81067551 -20 248 C-19.34 246.68 -18.68 245.36 -18 244 C-17.01 244.33 -16.02 244.66 -15 245 C-14.566875 246.010625 -14.13375 247.02125 -13.6875 248.0625 C-1.12887603 266.46234442 33.09999899 274.00724979 53.484375 278.1953125 C72.38528857 281.56346838 90.81822041 283.16672976 110 283.125 C112.62001953 283.13080078 112.62001953 283.13080078 115.29296875 283.13671875 C137.1026567 283.12055145 157.54076419 281.07993416 179 277 C180.63195312 276.70222656 182.26390625 276.40445312 183.9453125 276.09765625 C218.0181037 269.28937293 249.01803468 253.58557226 276 232 C277.65 230.72125 279.3 229.4425 281 228.125 C295.62320673 216.06085445 309.17738238 202.82238627 321 188 C322.27875 186.5975 323.5575 185.195 324.875 183.75 C338.31955532 168.26839084 344.54964958 156.6710841 345 136 C350 136 350 136 356 141 C354.44697843 131.3549187 352.94801161 123.55872279 348 115 C348.33 113.68 348.66 112.36 349 111 C356 112 356 112 359 113 C357.35 109.37 355.7 105.74 354 102 C354.66 102 355.32 102 356 102 C356.66 101.01 357.32 100.02 358 99 C358.66 99 359.32 99 360 99 C366 109.76923077 366 109.76923077 366 118 C365.67 118.33 365.34 118.66 365 119 C359 119 359 119 357 118 C357.639375 119.4025 358.27875 120.805 358.9375 122.25 C362.06328156 129.44876966 362.24499043 135.16030627 362 143 C361.34 144.32 360.68 145.64 360 147 C354 147 354 147 351 145 C351.0825 146.753125 351.165 148.50625 351.25 150.3125 C350.64634058 166.46038938 340.96706402 177.98089339 331 190 C330.19691406 190.98871094 329.39382813 191.97742188 328.56640625 192.99609375 C316.10666485 208.00080361 302.23570814 221.8322726 287 234 C285.453125 235.27875 283.90625 236.5575 282.3125 237.875 C251.28845811 261.96425605 215.805818 279.02241542 177 286 C175.576875 286.27199219 174.15375 286.54398438 172.6875 286.82421875 C152.06932767 290.54492766 131.47700116 291.34259281 110.5625 291.3125 C108.32662109 291.32861328 106.09074219 291.34472656 103.78710938 291.36132812 C67.21291198 291.37195707 19.72181319 286.37093498 -9 261 C-10.340625 259.865625 -11.68125 258.73125 -13.0625 257.5625 C-14.031875 256.716875 -15.00125 255.87125 -16 255 C-17.98 255.33 -19.96 255.66 -22 256 C-26 251 -26 251 -27 245 C-27.99 245.66 -28.98 246.32 -30 247 C-31.98 247 -33.96 247 -36 247 C-42.84155274 237.09775261 -43.25044011 228.89590507 -43 217 C-43.99 217.66 -44.98 218.32 -46 219 C-47.65 219 -49.3 219 -51 219 C-55.56226519 213.29716851 -55.55950132 211.99376654 -55 205 C-54.4115066 202.31499887 -53.76780347 199.63932442 -53 197 C-54.98 196.67 -56.96 196.34 -59 196 C-68.27340274 191.86818389 -76.30978566 186.63676032 -84 180 C-85.299375 178.96875 -86.59875 177.9375 -87.9375 176.875 C-101.48202956 163.95560258 -112.09727608 147.23110061 -113.3984375 128.16015625 C-113.39070312 126.14792969 -113.38296875 124.13570312 -113.375 122.0625 C-113.38273438 120.05285156 -113.39046875 118.04320312 -113.3984375 115.97265625 C-112.21506266 98.23363534 -103.8161233 84.14889327 -90.875 72.3125 C-75.7462293 61.20733853 -58.75454672 55.73069663 -40 55 C-39.67 53.02 -39.34 51.04 -39 49 C-30.9666471 29.23881105 -16.52433507 13.21946805 0 0 Z M-1 7 C-1.33 7.66 -1.66 8.32 -2 9 C-1.34 9 -0.68 9 0 9 C-0.33 8.34 -0.66 7.68 -1 7 Z "
          fill="#0E0C0B" transform="translate(120,56)"/>
    <!-- Left Eye -->
    <path d="M0 0 C11.74277404 8.73180634 20.41738545 19.87931268 22.875 34.625 C23.81300171 54.46142951 21.23927782 68.65545532 9.0625 84.625 C-1.95902206 95.15302107 -14.96595349 101.34173052 -30.1875 101.8125 C-45.69234774 101.32287323 -58.24517519 96.03126794 -69.125 84.625 C-75.125 76.41447368 -75.125 76.41447368 -75.125 73.625 C-72.45833333 74.95833333 -69.79166667 76.29166667 -67.125 77.625 C-56.46565584 78.30684081 -56.46565584 78.30684081 -47.125 73.625 C-39.32320438 65.97924029 -36.90393934 57.72786293 -36.6875 47 C-37.05867854 34.65285518 -40.12865305 28.3876756 -49.125 19.625 C-55.21872307 15.56251796 -59.8630332 15.05913246 -67.125 15.625 C-68.775 16.285 -70.425 16.945 -72.125 17.625 C-67.7624853 6.71871326 -58.79182557 0.49722666 -48.5625 -4.6875 C-31.5747798 -11.14761895 -15.67442997 -8.6369308 0 0 Z "
          fill="#FAFAF6" transform="translate(214.125,100.375)"/>
    <!-- Right Eye -->
    <path d="M0 0 C15.30333226 9.49862003 23.62354708 21.49418832 28 39 C28.55001743 54.40048813 26.74722639 66.98500309 16.75 79.1875 C9.8577151 86.17047286 2.40959655 91.45311577 -7.63671875 92.46875 C-22.30437361 92.55950115 -31.95951708 89.62901276 -44 81 C-43.67 80.01 -43.34 79.02 -43 78 C-41.783125 77.46375 -40.56625 76.9275 -39.3125 76.375 C-33.88264651 73.3846459 -30.84900949 69.78584755 -28.1875 64.1875 C-25.67186009 53.19812565 -25.47158353 42.06455306 -31 32 C-35.19070011 26.49000541 -37.72665213 24.13667393 -44 21 C-51.61009708 20.56335839 -51.61009708 20.56335839 -59 22 C-56.93002197 13.72008789 -52.47564666 7.44776624 -46 2 C-30.07312435 -6.68738672 -16.71011106 -7.40920019 0 0 Z "
          fill="#FAFAF9" transform="translate(392,57)"/>
    <!-- Left Ear-->
    <path d="M0 0 C0.495 3.96 0.495 3.96 1 8 C0.67 8.33 0.34 8.66 0 9 C-0.7312789 13.51395851 -1.40991324 18.03649505 -2.0625 22.5625 C-2.42472656 25.05941406 -2.78695312 27.55632813 -3.16015625 30.12890625 C-3.43730469 32.06636719 -3.71445312 34.00382813 -4 36 C-5.35996094 35.34902344 -6.71992188 34.69804688 -8.12109375 34.02734375 C-15.33866478 31.02820895 -21.67881488 31.26738564 -29.25 32.9375 C-36.95506445 37.17528545 -40.60361351 43.0750982 -44 51 C-46.03520445 61.17602226 -45.5803771 70.31413775 -42 80 C-41.97421875 78.61167969 -41.9484375 77.22335937 -41.921875 75.79296875 C-41.48304093 61.48099388 -40.79447983 50.41572616 -30 40 C-22.4351444 36.97405776 -17.04061988 37.27444627 -9.375 40 C-7.93125 40.66 -6.4875 41.32 -5 42 C-3.9842672 47.07866399 -4.25512105 50.35006517 -4.90625 55.4453125 C-6.34451672 68.12184785 -6.41594822 80.75531991 -6.56640625 93.5 C-6.76712808 105.77021256 -7.60922896 117.13230135 -11 129 C-21.44801246 125.51732918 -29.5745431 118.94530907 -38 112 C-39.65 110.68 -41.3 109.36 -43 108 C-57.85295095 92.57578171 -65.46757573 75.4924582 -65.34375 54.1015625 C-64.37081563 39.66233194 -56.0072591 27.0072591 -46 17 C-36.40703336 10.35032994 -27.69466954 5.88057669 -16.3125 3.3125 C-14.49363281 2.89613281 -12.67476563 2.47976563 -10.80078125 2.05078125 C-1.43122677 0 -1.43122677 0 0 0 Z "
          fill="#5D4D3C" transform="translate(79,118)"/>
    <!-- Eye Outline Left Black -->
    <path d="M0 0 C18.8285897 6.55827282 32.11072835 17.47226977 41.5625 34.9375 C47.8789302 48.90013517 47.66915562 66.57503108 42.5625 80.9375 C35.17365623 98.79387245 23.8200957 112.12743638 5.6875 119.875 C-9.14700268 124.87029172 -25.89888873 124.94257857 -40.4375 118.9375 C-57.39344368 110.15309544 -66.26641201 97.72475361 -72.4375 79.9375 C-76.49152763 59.66736186 -73.19571226 40.46297481 -62.4375 22.9375 C-53.64424151 12.06162765 -44.48344198 5.76271142 -31.4375 0.9375 C-22.38650958 -3.58799521 -9.7259699 -1.60525717 0 0 Z M-54.4375 24.9375 C-55.9225 27.4125 -55.9225 27.4125 -57.4375 29.9375 C-57.1075 30.5975 -56.7775 31.2575 -56.4375 31.9375 C-55.1175 31.2775 -53.7975 30.6175 -52.4375 29.9375 C-44.4990606 29.19657899 -39.96478425 30.36840103 -33.4375 34.9375 C-24.96744997 43.1655486 -22.3509327 49.64287701 -21.9375 61.25 C-22.17500975 73.02222233 -26.00856702 81.66182035 -34.4375 89.9375 C-40.47486867 92.95618434 -45.78344457 92.28771344 -52.4375 91.9375 C-54.4175 90.6175 -56.3975 89.2975 -58.4375 87.9375 C-59.0975 87.9375 -59.7575 87.9375 -60.4375 87.9375 C-55.54092324 100.17894191 -46.20092473 106.96078613 -34.75 112.875 C-22.5296097 117.61938682 -9.83446861 116.8994178 2.5625 112.9375 C18.77005539 105.13386222 28.2577567 95.42534917 35.5625 78.9375 C40.04829369 62.14331801 38.81409672 45.25165267 30.25 30.0625 C20.31742382 16.2579026 8.0255968 9.42544424 -8.4375 5.9375 C-27.46052202 4.43072598 -41.15397207 11.82001617 -54.4375 24.9375 Z "
          fill="#060605" transform="translate(199.4375,86.0625)"/>
    <!-- Snout Outline Left -->
    <path d="M0 0 C3.37271577 5.62119295 3.58180779 7.60011429 3 14 C-0.48827613 25.9814702 -8.38233614 33.79275036 -19 40 C-19.66 40 -20.32 40 -21 40 C-21 44.62 -21 49.24 -21 54 C-12.3497737 57.19392971 -5.09908336 57.24815682 4 57 C4.33 58.98 4.66 60.96 5 63 C2.25956544 65.74043456 -6.42825358 64.25464004 -10.10546875 64.265625 C-15.73068999 63.96034563 -20.017179 62.61393889 -25 60 C-25.99 61.98 -25.99 61.98 -27 64 C-41.0059286 78.24331722 -58.16783318 84.08309086 -77.8125 84.3125 C-99.14842443 84.18917096 -116.5558751 79.4441249 -132 64 C-136.75717241 69.29883131 -136.75717241 69.29883131 -141 75 C-141.99 75 -142.98 75 -144 75 C-143.90869741 69.15663418 -143.30304928 66.41594999 -139.8125 61.625 C-134.43737666 56.51422699 -131.06458817 55.03131142 -123.625 54.8125 C-121.76875 54.874375 -119.9125 54.93625 -118 55 C-117.67 55.99 -117.34 56.98 -117 58 C-120.96 58.99 -120.96 58.99 -125 60 C-125 60.66 -125 61.32 -125 62 C-105.69892203 74.65292889 -86.3372615 79.33760829 -63.4375 76.25 C-50.8334407 72.69956076 -39.71052094 66.98080525 -31 57 C-28.34298495 51.68596991 -27.49297378 48.7184958 -27 43 C-28.12535156 43.05800781 -29.25070312 43.11601563 -30.41015625 43.17578125 C-44.99619139 43.60442208 -57.25920656 41.43112915 -69 32 C-73 26 -73 26 -73 19 C-64.61244533 6.418668 -54.48287888 1.08468323 -40.5 -4 C-26.58109114 -6.14137059 -12.3335624 -7.71660495 0 0 Z "
          fill="#0E0B09" transform="translate(365,163)"/>
    <!-- Eyepatch Outline Left Black -->
    <path d="M0 0 C12.74670616 10.62225514 20.41853313 24.6507098 23 41 C24.71654719 68.95216971 16.68813623 93.75184511 -2 115 C-23.44074269 138.14238893 -57.25581826 147.46898376 -87.90625 149.4453125 C-107.75692244 149.78835407 -124.42196966 147.23903915 -139.9375 133.6875 C-152.10426474 119.6489253 -155.88406567 104.81713409 -155.41796875 86.6015625 C-153.15329195 56.25066029 -139.77788646 27.7536381 -117.5625 6.75 C-83.25905892 -21.44460911 -36.96121313 -28.8477761 0 0 Z M-118 15 C-139.58435809 40.08452427 -150.6146367 67.72938739 -149 101 C-146.9706331 114.90406236 -141.63431327 124.84267468 -131 134 C-108.33464788 146.65992641 -82.71461086 145.32892038 -58 139 C-41.58399652 134.19581467 -26.28006165 129.09975302 -13 118 C-11.845 117.113125 -10.69 116.22625 -9.5 115.3125 C7.51727878 99.20686116 17.36725556 75.60954147 18.25 52.4375 C17.54806442 34.36265886 11.58124289 18.70743763 -1.25 5.6875 C-17.53449479 -6.95441043 -35.39045161 -12.27630822 -55.875 -12.3125 C-59.15050781 -12.33763672 -59.15050781 -12.33763672 -62.4921875 -12.36328125 C-84.29375923 -11.14626674 -102.53720103 0.19989242 -118 15 Z "
          fill="#0E0B09" transform="translate(249,78)"/>
    <!-- Eyepatch Brown Right Part 1-->
    <path d="M0 0 C1.52625 -0.02835937 3.0525 -0.05671875 4.625 -0.0859375 C12.23976287 0.71633216 16.72047933 4.73858871 22.125 9.875 C25.67302395 13.22949537 29.17552868 16.31542294 33 19.375 C32.67 20.035 32.34 20.695 32 21.375 C30.4325 20.715 28.865 20.055 27.25 19.375 C14.55101199 15.87183089 0.99558672 15.29931322 -11 21.375 C-23.73813309 30.35701692 -31.58786242 40.02038091 -35 55.375 C-36.32096506 75.66442967 -33.32776935 92.32727772 -20 108.375 C-17.70399293 110.74507182 -15.38045671 113.08976156 -13 115.375 C-17.70617962 115.375 -19.5466611 112.50458838 -23 109.375 C-39.17465168 90.59153354 -49.79884552 69.81581517 -48 44.375 C-44.6890173 30.10793293 -39.29525964 18.07733841 -28 8.375 C-18.75065971 3.18404371 -10.64036007 0.08986791 0 0 Z "
          fill="#5F4F3E" transform="translate(359,28.625)"/>
    <!-- Nose -->
    <path d="M0 0 C4 4 4 4 4 11 C-0.11248626 21.15270046 -5.54103493 26.96103112 -14.9375 32.5 C-26.29258673 37.18250999 -37.38230782 34.71487446 -48.9375 31.1875 C-54 29 -54 29 -60 24 C-60 16.67675809 -58.80224691 16.22349664 -54 11 C-39.11039852 -0.4535396 -18.22977701 -6.07659234 0 0 Z "
          fill="#2A231B" transform="translate(358,165)"/>
    <!-- Ear Right -->
    <path d="M0 0 C13.61841196 7.90746501 22.22916856 18.17857794 26.625 33.25 C28.89405555 45.9567111 28.28852777 56.73373153 24.875 69.25 C24.215 69.25 23.555 69.25 22.875 69.25 C21.555 67.27 20.235 65.29 18.875 63.25 C16.77286556 60.1861047 14.66849608 57.12374225 12.5625 54.0625 C8.94991913 48.79499382 5.41548649 43.52367219 2 38.125 C-1.11966339 33.25832511 -4.5065711 28.75457475 -8.125 24.25 C-7.125 20.25 -7.125 20.25 -6.125 19.25 C1.86574493 18.48897667 5.51969318 20.53166615 11.875 25.25 C12.865 25.58 13.855 25.91 14.875 26.25 C12.93092244 21.38980611 11.57153807 18.7222292 7.1875 15.75 C2.40715973 14.08727295 -1.09804017 13.80644472 -6.125 14.25 C-8.105 15.24 -8.105 15.24 -10.125 16.25 C-15.45355747 14.91786063 -16.900382 12.37970215 -20.375 8.1875 C-21.45265625 6.89714844 -22.5303125 5.60679687 -23.640625 4.27734375 C-24.46046875 3.27832031 -25.2803125 2.27929688 -26.125 1.25 C-20.02943632 -4.84556368 -7.43558705 -2.53898094 0 0 Z "
          fill="#604F3E" transform="translate(420.125,39.75)"/>
    <!-- Eyepatch Brown Right Part 2 -->
    <path d="M0 0 C3.93986624 3.93986624 6.81076669 8.43609716 10 13 C12.475 15.97 12.475 15.97 15 19 C16.13964594 28.49704953 13.42470994 36.22196359 8.3125 44.1875 C-1.79956052 55.82590928 -14.54987814 64.03959835 -30.19140625 65.3515625 C-42.11232063 65.73973281 -42.11232063 65.73973281 -49 60 C-49 59.67 -49 59.34 -49 59 C-45.7825 58.7525 -45.7825 58.7525 -42.5 58.5 C-31.2093302 56.97250163 -21.87569168 52.50405001 -13.4375 44.875 C-5.40166795 33.47872909 -0.99035801 22.448115 -0.375 8.5 C-0.30023437 6.9015625 -0.22546875 5.303125 -0.1484375 3.65625 C-0.09945312 2.4496875 -0.05046875 1.243125 0 0 Z "
          fill="#604F3C" transform="translate(427,97)"/>
    <!-- Chin -->
    <path d="M0 0 C0.66 0 1.32 0 2 0 C-2.09319236 10.23298091 -11.28945512 14.75163661 -21 19 C-28.06048179 21.15736944 -34.64215672 21.16914582 -42 21 C-42 20.34 -42 19.68 -42 19 C-40.453125 18.608125 -38.90625 18.21625 -37.3125 17.8125 C-24.92536797 14.25579873 -9.40260796 9.40260796 0 0 Z "
          fill="#181511" transform="translate(356,257)"/>
</svg>
