<svg xmlns="http://www.w3.org/2000/svg" viewBox="0 0 20 20" fill="currentColor">
    <!-- Left parenthesis ( curving right -->
    <path d="M5.25 3.5a.75.75 0 0 1 .4.98C4.65 7 4.25 8.5 4.25 10s.4 3 1.4 5.52a.75.75 0 0 1-1.38.58C3.17 13.4 2.75 11.7 2.75 10s.42-3.4 1.52-6.1a.75.75 0 0 1 .98-.4Z"/>
    <!-- Checkmark (scaled down and centered) -->
    <path fill-rule="evenodd" d="M14.2 5.65a.65.65 0 0 1 .12.91l-5.5 7.2a.65.65 0 0 1-.97.065l-3.1-3.1a.65.65 0 0 1 .92-.92l2.6 2.6 5.07-6.63a.65.65 0 0 1 .91-.12Z" clip-rule="evenodd"/>
    <!-- Right parenthesis ) curving left -->
    <path d="M14.75 3.5a.75.75 0 0 0-.4.98c1 2.52 1.4 4.02 1.4 5.52s-.4 3-1.4 5.52a.75.75 0 0 0 1.38.58c1.1-2.7 1.52-4.4 1.52-6.1s-.42-3.4-1.52-6.1a.75.75 0 0 0-.98-.4Z"/>
</svg>
